<svg height="56" viewBox="0 0 56 56" width="56" xmlns="http://www.w3.org/2000/svg"><path d="m25.0206863 0c-13.8357932 0-25.0206863 11.2291197-25.0206863 25.121072 0 11.1045786 7.1665465 20.5043726 17.1084461 23.8312546 1.2429935.2501031 1.6982969-.540529 1.6982969-1.2055992 0-.582383-.0409722-2.5786142-.0409722-4.6585534-6.9601492 1.4975562-8.4095401-2.9946021-8.4095401-2.9946021-1.11854048-2.9114045-2.77586517-3.6596722-2.77586517-3.6596722-2.27805323-1.5388998.16593733-1.5388998.16593733-1.5388998 2.52695924.1663952 3.85292144 2.5786142 3.85292144 2.5786142 2.2365689 3.8260674 5.8405843 2.7450094 7.2904873 2.0794288.2069095-1.6220973.8701467-2.7450093 1.5743561-3.3687359-5.5512183-.582383-11.39180265-2.7450093-11.39180265-12.3943961 0-2.7450093.99357535-4.9908333 2.56793145-6.7374718-.2483939-.6237265-1.1185406-3.2028512.2489059-6.6547847 0 0 2.1126281-.66558051 6.8761562 2.5786143 2.0394358-.5498887 4.1426729-.8296205 6.2554277-.8319757 2.112628 0 4.2662283.2914467 6.2549155.8319757 4.7640402-3.24419481 6.8766683-2.5786143 6.8766683-2.5786143 1.3674465 3.4519335.4967877 6.0310582.2483938 6.6547847 1.6158404 1.7466385 2.5684436 3.9924625 2.5684436 6.7374718 0 9.6493868-5.8405843 11.7701592-11.433287 12.3943961.9116311.7901217 1.6982969 2.2871675 1.6982969 4.6580431 0 3.3687359-.0409722 6.0724016-.0409722 6.9038669 0 .6655806.4558156 1.4562127 1.6982969 1.20662 9.9418996-3.3279028 17.1085579-12.7271864 17.1085579-23.831765.0408604-13.8919523-11.1850049-25.121072-24.9793137-25.121072z" fill="#fff" fill-rule="evenodd" transform="translate(3 4)"/></svg>