<svg xmlns="http://www.w3.org/2000/svg" xmlns:xlink="http://www.w3.org/1999/xlink" width="364" height="70" viewBox="0 0 364 70">
  <defs>
    <rect id="d&amp;d-icons-b" width="32" height="18" x="0" y="0" rx="4"/>
    <filter id="d&amp;d-icons-a" width="140.6%" height="172.2%" x="-20.3%" y="-30.6%" filterUnits="objectBoundingBox">
      <feOffset dy="1" in="SourceAlpha" result="shadowOffsetOuter1"/>
      <feGaussianBlur in="shadowOffsetOuter1" result="shadowBlurOuter1" stdDeviation="2"/>
      <feComposite in="shadowBlurOuter1" in2="SourceAlpha" operator="out" result="shadowBlurOuter1"/>
      <feColorMatrix in="shadowBlurOuter1" values="0 0 0 0 0.219607843   0 0 0 0 0.258823529   0 0 0 0 0.329411765  0 0 0 0.1 0"/>
    </filter>
    <rect id="d&amp;d-icons-d" width="28" height="18" x="0" y="0" rx="4"/>
    <filter id="d&amp;d-icons-c" width="146.4%" height="172.2%" x="-23.2%" y="-30.6%" filterUnits="objectBoundingBox">
      <feOffset dy="1" in="SourceAlpha" result="shadowOffsetOuter1"/>
      <feGaussianBlur in="shadowOffsetOuter1" result="shadowBlurOuter1" stdDeviation="2"/>
      <feComposite in="shadowBlurOuter1" in2="SourceAlpha" operator="out" result="shadowBlurOuter1"/>
      <feColorMatrix in="shadowBlurOuter1" values="0 0 0 0 0.219607843   0 0 0 0 0.258823529   0 0 0 0 0.329411765  0 0 0 0.1 0"/>
    </filter>
    <rect id="d&amp;d-icons-f" width="20" height="18" x="0" y="0" rx="4"/>
    <filter id="d&amp;d-icons-e" width="165%" height="172.2%" x="-32.5%" y="-30.6%" filterUnits="objectBoundingBox">
      <feOffset dy="1" in="SourceAlpha" result="shadowOffsetOuter1"/>
      <feGaussianBlur in="shadowOffsetOuter1" result="shadowBlurOuter1" stdDeviation="2"/>
      <feComposite in="shadowBlurOuter1" in2="SourceAlpha" operator="out" result="shadowBlurOuter1"/>
      <feColorMatrix in="shadowBlurOuter1" values="0 0 0 0 0.219607843   0 0 0 0 0.258823529   0 0 0 0 0.329411765  0 0 0 0.1 0"/>
    </filter>
    <rect id="d&amp;d-icons-h" width="24" height="18" x="0" y="0" rx="4"/>
    <filter id="d&amp;d-icons-g" width="154.2%" height="172.2%" x="-27.1%" y="-30.6%" filterUnits="objectBoundingBox">
      <feOffset dy="1" in="SourceAlpha" result="shadowOffsetOuter1"/>
      <feGaussianBlur in="shadowOffsetOuter1" result="shadowBlurOuter1" stdDeviation="2"/>
      <feComposite in="shadowBlurOuter1" in2="SourceAlpha" operator="out" result="shadowBlurOuter1"/>
      <feColorMatrix in="shadowBlurOuter1" values="0 0 0 0 0.219607843   0 0 0 0 0.258823529   0 0 0 0 0.329411765  0 0 0 0.1 0"/>
    </filter>
    <path id="d&amp;d-icons-j" d="M23.1664981,26 C32.7148383,26 40.3260056,21.6666667 46,13 C40.5626941,4.33333333 32.9515268,0 23.1664981,0 C13.3814695,0 5.65930342,4.33333333 0,13 C5.89599191,21.6666667 13.6181579,26 23.1664981,26 Z"/>
    <filter id="d&amp;d-icons-i" width="128.3%" height="150%" x="-14.1%" y="-21.2%" filterUnits="objectBoundingBox">
      <feOffset dy="1" in="SourceAlpha" result="shadowOffsetOuter1"/>
      <feGaussianBlur in="shadowOffsetOuter1" result="shadowBlurOuter1" stdDeviation="2"/>
      <feComposite in="shadowBlurOuter1" in2="SourceAlpha" operator="out" result="shadowBlurOuter1"/>
      <feColorMatrix in="shadowBlurOuter1" values="0 0 0 0 0.219607843   0 0 0 0 0.258823529   0 0 0 0 0.329411765  0 0 0 0.1 0"/>
    </filter>
    <path id="d&amp;d-icons-l" d="M4,0 L38,0 C40.209139,-4.05812251e-16 42,1.790861 42,4 L42,46 L42,46 L0,46 L0,4 C-2.705415e-16,1.790861 1.790861,4.05812251e-16 4,0 Z"/>
    <filter id="d&amp;d-icons-k" width="131%" height="128.3%" x="-15.5%" y="-12%" filterUnits="objectBoundingBox">
      <feOffset dy="1" in="SourceAlpha" result="shadowOffsetOuter1"/>
      <feGaussianBlur in="shadowOffsetOuter1" result="shadowBlurOuter1" stdDeviation="2"/>
      <feComposite in="shadowBlurOuter1" in2="SourceAlpha" operator="out" result="shadowBlurOuter1"/>
      <feColorMatrix in="shadowBlurOuter1" values="0 0 0 0 0.219607843   0 0 0 0 0.258823529   0 0 0 0 0.329411765  0 0 0 0.1 0"/>
    </filter>
    <rect id="d&amp;d-icons-n" width="40" height="40" x="0" y="0" rx="4"/>
    <filter id="d&amp;d-icons-m" width="132.5%" height="132.5%" x="-16.2%" y="-13.8%" filterUnits="objectBoundingBox">
      <feOffset dy="1" in="SourceAlpha" result="shadowOffsetOuter1"/>
      <feGaussianBlur in="shadowOffsetOuter1" result="shadowBlurOuter1" stdDeviation="2"/>
      <feComposite in="shadowBlurOuter1" in2="SourceAlpha" operator="out" result="shadowBlurOuter1"/>
      <feColorMatrix in="shadowBlurOuter1" values="0 0 0 0 0.219607843   0 0 0 0 0.258823529   0 0 0 0 0.329411765  0 0 0 0.1 0"/>
    </filter>
    <rect id="d&amp;d-icons-p" width="46" height="56" x="0" y="0" rx="4"/>
    <filter id="d&amp;d-icons-o" width="128.3%" height="123.2%" x="-14.1%" y="-9.8%" filterUnits="objectBoundingBox">
      <feOffset dy="1" in="SourceAlpha" result="shadowOffsetOuter1"/>
      <feGaussianBlur in="shadowOffsetOuter1" result="shadowBlurOuter1" stdDeviation="2"/>
      <feComposite in="shadowBlurOuter1" in2="SourceAlpha" operator="out" result="shadowBlurOuter1"/>
      <feColorMatrix in="shadowBlurOuter1" values="0 0 0 0 0.219607843   0 0 0 0 0.258823529   0 0 0 0 0.329411765  0 0 0 0.1 0"/>
    </filter>
  </defs>
  <g fill="none" fill-rule="evenodd" transform="translate(0 2)">
    <g transform="translate(200 3)">
      <g transform="translate(4)">
        <use fill="#000" filter="url(#d&amp;d-icons-a)" xlink:href="#d&amp;d-icons-b"/>
        <rect width="31" height="17" x=".5" y=".5" fill="#FFF" stroke="#E1E1E1" stroke-linejoin="square" rx="4"/>
        <rect width="20" height="2" x="6" y="8" fill="#01B2D0" rx="1"/>
      </g>
      <g transform="translate(32 22)">
        <use fill="#000" filter="url(#d&amp;d-icons-c)" xlink:href="#d&amp;d-icons-d"/>
        <rect width="27" height="17" x=".5" y=".5" fill="#FFF" stroke="#E1E1E1" stroke-linejoin="square" rx="4"/>
        <rect width="16" height="2" x="6" y="8" fill="#F15242" rx="1"/>
      </g>
      <g transform="translate(40)">
        <use fill="#000" filter="url(#d&amp;d-icons-e)" xlink:href="#d&amp;d-icons-f"/>
        <rect width="19" height="17" x=".5" y=".5" fill="#FFF" stroke="#E1E1E1" stroke-linejoin="square" rx="4"/>
        <rect width="8" height="2" x="6" y="8" fill="#6F0DFB" rx="1"/>
      </g>
      <g transform="translate(4 22)">
        <use fill="#000" filter="url(#d&amp;d-icons-g)" xlink:href="#d&amp;d-icons-h"/>
        <rect width="23" height="17" x=".5" y=".5" fill="#FFF" stroke="#E1E1E1" stroke-linejoin="square" rx="4"/>
        <rect width="12" height="2" x="6" y="8" fill="#6FD350" rx="1"/>
      </g>
      <g transform="translate(9.266 33)">
        <use fill="#000" filter="url(#d&amp;d-icons-i)" xlink:href="#d&amp;d-icons-j"/>
        <path fill="#FFF" stroke="#E1E1E1" stroke-linejoin="square" d="M23.1664981,0.5 C32.6698769,0.5 40.0802395,4.66930469 45.4035716,12.9957566 C39.8528044,21.3241454 32.4444301,25.5 23.1664981,25.5 C13.8855159,25.5 6.36816933,21.3225136 0.603559912,12.9928895 C6.14340031,4.66964961 13.6615864,0.5 23.1664981,0.5 Z"/>
        <path fill="#F7F7F7" d="M23.1303029,23 C30.6029169,23 36.5594826,19.6666667 41,13 C36.7447171,6.33333333 30.7881514,3 23.1303029,3 C15.4724544,3 9.42902007,6.33333333 5,13 C9.61425454,19.6666667 15.6576888,23 23.1303029,23 Z"/>
        <circle cx="23" cy="13" r="7" fill="#E1E1E1"/>
      </g>
    </g>
    <g transform="translate(300 4)">
      <g transform="translate(11 8)">
        <use fill="#000" filter="url(#d&amp;d-icons-k)" xlink:href="#d&amp;d-icons-l"/>
        <path fill="#FFF" stroke="#E1E1E1" stroke-linejoin="square" d="M38,0.5 C38.9664983,0.5 39.8414983,0.891750844 40.4748737,1.52512627 C41.1082492,2.15850169 41.5,3.03350169 41.5,4 L41.5,4 L41.5,45.5 L0.5,45.5 L0.5,4 C0.5,3.03350169 0.891750844,2.15850169 1.52512627,1.52512627 C2.15850169,0.891750844 3.03350169,0.5 4,0.5 L4,0.5 Z"/>
        <path fill="#F7F7F7" d="M5,3 L37,3 C38.1045695,3 39,3.8954305 39,5 L39,43 L39,43 L3,43 L3,5 C3,3.8954305 3.8954305,3 5,3 Z"/>
        <rect width="24" height="13" x="9" y="8" fill="#6FD350"/>
        <rect width="24" height="2" x="9" y="25" fill="#E1E1E1" rx="1"/>
        <rect width="24" height="2" x="9" y="29" fill="#E1E1E1" rx="1"/>
        <rect width="24" height="2" x="9" y="33" fill="#E1E1E1" rx="1"/>
        <rect width="24" height="2" x="9" y="37" fill="#E1E1E1" rx="1"/>
      </g>
      <path fill="#1B2E5B" stroke="#FFF" stroke-width="2" d="M34,-1 L34,17 L40.6742172,17 L32,33.1092604 L23.3257828,17 L30,17 L30,-1 L34,-1 Z" transform="matrix(1 0 0 -1 0 31)"/>
    </g>
    <g transform="translate(100 1)">
      <path fill="#1B2E5B" d="M16 0L16 2 2 2 2 16 0 16 0 0 16 0zM60 16L58 16 58 2 44 2 44 0 60 0 60 16zM44 60L44 58 58 58 58 44 60 44 60 60 44 60zM2 44L2 58 16 58 16 60 0 60 0 44 2 44z" transform="translate(2)"/>
      <g transform="translate(12 10)">
        <use fill="#000" filter="url(#d&amp;d-icons-m)" xlink:href="#d&amp;d-icons-n"/>
        <rect width="39" height="39" x=".5" y=".5" fill="#FFF" stroke="#E1E1E1" stroke-linejoin="square" rx="4"/>
        <rect width="24" height="2" x="8" y="16" fill="#01B2D0" rx="1"/>
        <rect width="20" height="2" x="10" y="22" fill="#01B2D0" rx="1"/>
      </g>
    </g>
    <g transform="translate(9 7)">
      <use fill="#000" filter="url(#d&amp;d-icons-o)" xlink:href="#d&amp;d-icons-p"/>
      <rect width="45" height="55" x=".5" y=".5" fill="#FFF" stroke="#E1E1E1" stroke-linejoin="square" rx="4"/>
      <rect width="40" height="50" x="3" y="3" fill="#F7F7F7" rx="2"/>
      <rect width="24" height="13" x="11" y="8" fill="#F15242"/>
      <rect width="24" height="2" x="11" y="25" fill="#E1E1E1" rx="1"/>
      <rect width="24" height="2" x="11" y="29" fill="#E1E1E1" rx="1"/>
      <rect width="24" height="2" x="11" y="33" fill="#E1E1E1" rx="1"/>
      <rect width="24" height="2" x="11" y="37" fill="#E1E1E1" rx="1"/>
      <rect width="24" height="2" x="11" y="41" fill="#E1E1E1" rx="1"/>
      <rect width="24" height="2" x="11" y="45" fill="#E1E1E1" rx="1"/>
    </g>
    <path fill="#1B2E5B" stroke="#FFF" stroke-width="2" d="M34,-1 L34,23 L40.6742172,23 L32,39.1092604 L23.3257828,23 L30,23 L30,-1 L34,-1 Z"/>
  </g>
</svg>
