<svg xmlns="http://www.w3.org/2000/svg" xmlns:xlink="http://www.w3.org/1999/xlink" width="375" height="198" viewBox="0 0 375 198">
  <defs>
    <rect id="home-icons-b" width="60" height="76" x="0" y="0" rx="4"/>
    <filter id="home-icons-a" width="133.3%" height="126.3%" x="-16.7%" y="-10.5%" filterUnits="objectBoundingBox">
      <feOffset dy="2" in="SourceAlpha" result="shadowOffsetOuter1"/>
      <feGaussianBlur in="shadowOffsetOuter1" result="shadowBlurOuter1" stdDeviation="3"/>
      <feComposite in="shadowBlurOuter1" in2="SourceAlpha" operator="out" result="shadowBlurOuter1"/>
      <feColorMatrix in="shadowBlurOuter1" values="0 0 0 0 0.219607843   0 0 0 0 0.258823529   0 0 0 0 0.329411765  0 0 0 0.1 0"/>
    </filter>
    <path id="home-icons-d" d="M4,0 L56,0 C58.209139,-4.33003142e-15 60,1.790861 60,4 L60,10 L60,10 L0,10 L0,4 C-2.705415e-16,1.790861 1.790861,4.05812251e-16 4,0 Z"/>
    <filter id="home-icons-c" width="133.3%" height="300%" x="-16.7%" y="-80%" filterUnits="objectBoundingBox">
      <feOffset dy="2" in="SourceAlpha" result="shadowOffsetOuter1"/>
      <feGaussianBlur in="shadowOffsetOuter1" result="shadowBlurOuter1" stdDeviation="3"/>
      <feComposite in="shadowBlurOuter1" in2="SourceAlpha" operator="out" result="shadowBlurOuter1"/>
      <feColorMatrix in="shadowBlurOuter1" values="0 0 0 0 0.219607843   0 0 0 0 0.258823529   0 0 0 0 0.329411765  0 0 0 0.1 0"/>
    </filter>
    <rect id="home-icons-e" width="48" height="25" x="6" y="44" rx="2"/>
    <filter id="home-icons-f" width="102.1%" height="104%" x="-1%" y="-2%" filterUnits="objectBoundingBox">
      <feOffset dy="1" in="SourceAlpha" result="shadowOffsetInner1"/>
      <feComposite in="shadowOffsetInner1" in2="SourceAlpha" k2="-1" k3="1" operator="arithmetic" result="shadowInnerInner1"/>
      <feColorMatrix in="shadowInnerInner1" values="0 0 0 0 0.219607843   0 0 0 0 0.258823529   0 0 0 0 0.329411765  0 0 0 0.05859375 0"/>
    </filter>
    <rect id="home-icons-h" width="60" height="50" x="0" y="0" rx="2"/>
    <filter id="home-icons-g" width="145%" height="154%" x="-22.5%" y="-21%" filterUnits="objectBoundingBox">
      <feOffset dy="3" in="SourceAlpha" result="shadowOffsetOuter1"/>
      <feGaussianBlur in="shadowOffsetOuter1" result="shadowBlurOuter1" stdDeviation="4"/>
      <feComposite in="shadowBlurOuter1" in2="SourceAlpha" operator="out" result="shadowBlurOuter1"/>
      <feColorMatrix in="shadowBlurOuter1" values="0 0 0 0 0.219607843   0 0 0 0 0.258823529   0 0 0 0 0.329411765  0 0 0 0.1 0"/>
    </filter>
    <rect id="home-icons-j" width="44" height="28" x="0" y="0" rx="2"/>
    <filter id="home-icons-i" width="145.5%" height="171.4%" x="-22.7%" y="-28.6%" filterUnits="objectBoundingBox">
      <feOffset dy="2" in="SourceAlpha" result="shadowOffsetOuter1"/>
      <feGaussianBlur in="shadowOffsetOuter1" result="shadowBlurOuter1" stdDeviation="3"/>
      <feComposite in="shadowBlurOuter1" in2="SourceAlpha" operator="out" result="shadowBlurOuter1"/>
      <feColorMatrix in="shadowBlurOuter1" values="0 0 0 0 0.219607843   0 0 0 0 0.258823529   0 0 0 0 0.329411765  0 0 0 0.1 0"/>
    </filter>
    <rect id="home-icons-l" width="18" height="18" x="0" y="0" rx="4"/>
    <filter id="home-icons-k" width="211.1%" height="211.1%" x="-55.6%" y="-44.4%" filterUnits="objectBoundingBox">
      <feOffset dy="2" in="SourceAlpha" result="shadowOffsetOuter1"/>
      <feGaussianBlur in="shadowOffsetOuter1" result="shadowBlurOuter1" stdDeviation="3"/>
      <feComposite in="shadowBlurOuter1" in2="SourceAlpha" operator="out" result="shadowBlurOuter1"/>
      <feColorMatrix in="shadowBlurOuter1" values="0 0 0 0 0.219607843   0 0 0 0 0.258823529   0 0 0 0 0.329411765  0 0 0 0.1 0"/>
    </filter>
    <rect id="home-icons-n" width="18" height="18" x="0" y="0" rx="4"/>
    <filter id="home-icons-m" width="211.1%" height="211.1%" x="-55.6%" y="-44.4%" filterUnits="objectBoundingBox">
      <feOffset dy="2" in="SourceAlpha" result="shadowOffsetOuter1"/>
      <feGaussianBlur in="shadowOffsetOuter1" result="shadowBlurOuter1" stdDeviation="3"/>
      <feComposite in="shadowBlurOuter1" in2="SourceAlpha" operator="out" result="shadowBlurOuter1"/>
      <feColorMatrix in="shadowBlurOuter1" values="0 0 0 0 0.219607843   0 0 0 0 0.258823529   0 0 0 0 0.329411765  0 0 0 0.1 0"/>
    </filter>
    <rect id="home-icons-o" width="14" height="14" x="2" y="2" rx="2"/>
    <filter id="home-icons-p" width="107.1%" height="107.1%" x="-3.6%" y="-3.6%" filterUnits="objectBoundingBox">
      <feOffset dy="1" in="SourceAlpha" result="shadowOffsetInner1"/>
      <feComposite in="shadowOffsetInner1" in2="SourceAlpha" k2="-1" k3="1" operator="arithmetic" result="shadowInnerInner1"/>
      <feColorMatrix in="shadowInnerInner1" values="0 0 0 0 0.219607843   0 0 0 0 0.258823529   0 0 0 0 0.329411765  0 0 0 0.05859375 0"/>
    </filter>
    <rect id="home-icons-r" width="18" height="18" x="0" y="0" rx="4"/>
    <filter id="home-icons-q" width="211.1%" height="211.1%" x="-55.6%" y="-44.4%" filterUnits="objectBoundingBox">
      <feOffset dy="2" in="SourceAlpha" result="shadowOffsetOuter1"/>
      <feGaussianBlur in="shadowOffsetOuter1" result="shadowBlurOuter1" stdDeviation="3"/>
      <feComposite in="shadowBlurOuter1" in2="SourceAlpha" operator="out" result="shadowBlurOuter1"/>
      <feColorMatrix in="shadowBlurOuter1" values="0 0 0 0 0.219607843   0 0 0 0 0.258823529   0 0 0 0 0.329411765  0 0 0 0.1 0"/>
    </filter>
    <rect id="home-icons-t" width="18" height="18" x="0" y="0" rx="4"/>
    <filter id="home-icons-s" width="211.1%" height="211.1%" x="-55.6%" y="-44.4%" filterUnits="objectBoundingBox">
      <feOffset dy="2" in="SourceAlpha" result="shadowOffsetOuter1"/>
      <feGaussianBlur in="shadowOffsetOuter1" result="shadowBlurOuter1" stdDeviation="3"/>
      <feComposite in="shadowBlurOuter1" in2="SourceAlpha" operator="out" result="shadowBlurOuter1"/>
      <feColorMatrix in="shadowBlurOuter1" values="0 0 0 0 0.219607843   0 0 0 0 0.258823529   0 0 0 0 0.329411765  0 0 0 0.1 0"/>
    </filter>
    <rect id="home-icons-v" width="18" height="18" x="0" y="0" rx="4"/>
    <filter id="home-icons-u" width="211.1%" height="211.1%" x="-55.6%" y="-44.4%" filterUnits="objectBoundingBox">
      <feOffset dy="2" in="SourceAlpha" result="shadowOffsetOuter1"/>
      <feGaussianBlur in="shadowOffsetOuter1" result="shadowBlurOuter1" stdDeviation="3"/>
      <feComposite in="shadowBlurOuter1" in2="SourceAlpha" operator="out" result="shadowBlurOuter1"/>
      <feColorMatrix in="shadowBlurOuter1" values="0 0 0 0 0.219607843   0 0 0 0 0.258823529   0 0 0 0 0.329411765  0 0 0 0.1 0"/>
    </filter>
    <rect id="home-icons-x" width="18" height="18" x="0" y="0" rx="4"/>
    <filter id="home-icons-w" width="211.1%" height="211.1%" x="-55.6%" y="-44.4%" filterUnits="objectBoundingBox">
      <feOffset dy="2" in="SourceAlpha" result="shadowOffsetOuter1"/>
      <feGaussianBlur in="shadowOffsetOuter1" result="shadowBlurOuter1" stdDeviation="3"/>
      <feComposite in="shadowBlurOuter1" in2="SourceAlpha" operator="out" result="shadowBlurOuter1"/>
      <feColorMatrix in="shadowBlurOuter1" values="0 0 0 0 0.219607843   0 0 0 0 0.258823529   0 0 0 0 0.329411765  0 0 0 0.1 0"/>
    </filter>
    <rect id="home-icons-y" width="14" height="14" x="2" y="2" rx="2"/>
    <filter id="home-icons-z" width="107.1%" height="107.1%" x="-3.6%" y="-3.6%" filterUnits="objectBoundingBox">
      <feOffset dy="1" in="SourceAlpha" result="shadowOffsetInner1"/>
      <feComposite in="shadowOffsetInner1" in2="SourceAlpha" k2="-1" k3="1" operator="arithmetic" result="shadowInnerInner1"/>
      <feColorMatrix in="shadowInnerInner1" values="0 0 0 0 0.219607843   0 0 0 0 0.258823529   0 0 0 0 0.329411765  0 0 0 0.05859375 0"/>
    </filter>
    <circle id="home-icons-A" cx="57" cy="38" r="24"/>
    <filter id="home-icons-B" width="156.2%" height="156.2%" x="-28.1%" y="-21.9%" filterUnits="objectBoundingBox">
      <feOffset dy="3" in="SourceAlpha" result="shadowOffsetOuter1"/>
      <feGaussianBlur in="shadowOffsetOuter1" result="shadowBlurOuter1" stdDeviation="4"/>
      <feComposite in="shadowBlurOuter1" in2="SourceAlpha" operator="out" result="shadowBlurOuter1"/>
      <feColorMatrix in="shadowBlurOuter1" values="0 0 0 0 0.219607843   0 0 0 0 0.258823529   0 0 0 0 0.329411765  0 0 0 0.1 0"/>
    </filter>
    <rect id="home-icons-E" width="44" height="26" x="0" y="0" rx="4"/>
    <filter id="home-icons-D" width="145.5%" height="176.9%" x="-22.7%" y="-30.8%" filterUnits="objectBoundingBox">
      <feOffset dy="2" in="SourceAlpha" result="shadowOffsetOuter1"/>
      <feGaussianBlur in="shadowOffsetOuter1" result="shadowBlurOuter1" stdDeviation="3"/>
      <feComposite in="shadowBlurOuter1" in2="SourceAlpha" operator="out" result="shadowBlurOuter1"/>
      <feColorMatrix in="shadowBlurOuter1" values="0 0 0 0 0.219607843   0 0 0 0 0.258823529   0 0 0 0 0.329411765  0 0 0 0.1 0"/>
    </filter>
    <rect id="home-icons-F" width="40" height="22" x="2" y="2" rx="2"/>
    <filter id="home-icons-G" width="102.5%" height="104.5%" x="-1.2%" y="-2.3%" filterUnits="objectBoundingBox">
      <feOffset dy="1" in="SourceAlpha" result="shadowOffsetInner1"/>
      <feComposite in="shadowOffsetInner1" in2="SourceAlpha" k2="-1" k3="1" operator="arithmetic" result="shadowInnerInner1"/>
      <feColorMatrix in="shadowInnerInner1" values="0 0 0 0 0.219607843   0 0 0 0 0.258823529   0 0 0 0 0.329411765  0 0 0 0.05859375 0"/>
    </filter>
    <rect id="home-icons-I" width="44" height="44" x="0" y="0" rx="4"/>
    <filter id="home-icons-H" width="145.5%" height="145.5%" x="-22.7%" y="-18.2%" filterUnits="objectBoundingBox">
      <feOffset dy="2" in="SourceAlpha" result="shadowOffsetOuter1"/>
      <feGaussianBlur in="shadowOffsetOuter1" result="shadowBlurOuter1" stdDeviation="3"/>
      <feComposite in="shadowBlurOuter1" in2="SourceAlpha" operator="out" result="shadowBlurOuter1"/>
      <feColorMatrix in="shadowBlurOuter1" values="0 0 0 0 0.219607843   0 0 0 0 0.258823529   0 0 0 0 0.329411765  0 0 0 0.1 0"/>
    </filter>
    <rect id="home-icons-J" width="40" height="40" x="2" y="2" rx="2"/>
    <filter id="home-icons-K" width="102.5%" height="102.5%" x="-1.2%" y="-1.2%" filterUnits="objectBoundingBox">
      <feOffset dy="1" in="SourceAlpha" result="shadowOffsetInner1"/>
      <feComposite in="shadowOffsetInner1" in2="SourceAlpha" k2="-1" k3="1" operator="arithmetic" result="shadowInnerInner1"/>
      <feColorMatrix in="shadowInnerInner1" values="0 0 0 0 0.219607843   0 0 0 0 0.258823529   0 0 0 0 0.329411765  0 0 0 0.05859375 0"/>
    </filter>
    <rect id="home-icons-M" width="50" height="20" x="0" y="0" rx="4"/>
    <filter id="home-icons-L" width="140%" height="200%" x="-20%" y="-40%" filterUnits="objectBoundingBox">
      <feOffset dy="2" in="SourceAlpha" result="shadowOffsetOuter1"/>
      <feGaussianBlur in="shadowOffsetOuter1" result="shadowBlurOuter1" stdDeviation="3"/>
      <feComposite in="shadowBlurOuter1" in2="SourceAlpha" operator="out" result="shadowBlurOuter1"/>
      <feColorMatrix in="shadowBlurOuter1" values="0 0 0 0 0.219607843   0 0 0 0 0.258823529   0 0 0 0 0.329411765  0 0 0 0.1 0"/>
    </filter>
    <rect id="home-icons-O" width="50" height="20" x="0" y="0" rx="4"/>
    <filter id="home-icons-N" width="140%" height="200%" x="-20%" y="-40%" filterUnits="objectBoundingBox">
      <feOffset dy="2" in="SourceAlpha" result="shadowOffsetOuter1"/>
      <feGaussianBlur in="shadowOffsetOuter1" result="shadowBlurOuter1" stdDeviation="3"/>
      <feComposite in="shadowBlurOuter1" in2="SourceAlpha" operator="out" result="shadowBlurOuter1"/>
      <feColorMatrix in="shadowBlurOuter1" values="0 0 0 0 0.219607843   0 0 0 0 0.258823529   0 0 0 0 0.329411765  0 0 0 0.1 0"/>
    </filter>
    <path id="home-icons-Q" d="M27,8 L27,35 L51.1545486,47.0779441 C46.7216501,55.9260017 37.5701542,62 27,62 C12.0883118,62 0,49.9116882 0,35 C0,20.0883118 12.0883118,8 27,8 L27,8 Z"/>
    <filter id="home-icons-P" width="139.1%" height="137%" x="-19.5%" y="-14.8%" filterUnits="objectBoundingBox">
      <feOffset dy="2" in="SourceAlpha" result="shadowOffsetOuter1"/>
      <feGaussianBlur in="shadowOffsetOuter1" result="shadowBlurOuter1" stdDeviation="3"/>
      <feComposite in="shadowBlurOuter1" in2="SourceAlpha" operator="out" result="shadowBlurOuter1"/>
      <feColorMatrix in="shadowBlurOuter1" values="0 0 0 0 0.219607843   0 0 0 0 0.258823529   0 0 0 0 0.329411765  0 0 0 0.1 0"/>
    </filter>
    <path id="home-icons-S" d="M32,0 C46.9116882,0 59,12.0883118 59,27 C59,31.341534 57.975296,35.4437356 56.1545486,39.0779441 L32,27 Z"/>
    <filter id="home-icons-R" width="174.1%" height="151.2%" x="-37%" y="-20.5%" filterUnits="objectBoundingBox">
      <feOffset dy="2" in="SourceAlpha" result="shadowOffsetOuter1"/>
      <feGaussianBlur in="shadowOffsetOuter1" result="shadowBlurOuter1" stdDeviation="3"/>
      <feComposite in="shadowBlurOuter1" in2="SourceAlpha" operator="out" result="shadowBlurOuter1"/>
      <feColorMatrix in="shadowBlurOuter1" values="0 0 0 0 0.219607843   0 0 0 0 0.258823529   0 0 0 0 0.329411765  0 0 0 0.1 0"/>
    </filter>
    <rect id="home-icons-U" width="100" height="6" x="0" y="4" rx="3"/>
    <filter id="home-icons-T" width="120%" height="433.3%" x="-10%" y="-133.3%" filterUnits="objectBoundingBox">
      <feOffset dy="2" in="SourceAlpha" result="shadowOffsetOuter1"/>
      <feGaussianBlur in="shadowOffsetOuter1" result="shadowBlurOuter1" stdDeviation="3"/>
      <feComposite in="shadowBlurOuter1" in2="SourceAlpha" operator="out" result="shadowBlurOuter1"/>
      <feColorMatrix in="shadowBlurOuter1" values="0 0 0 0 0.219607843   0 0 0 0 0.258823529   0 0 0 0 0.329411765  0 0 0 0.1 0"/>
    </filter>
    <rect id="home-icons-W" width="10" height="14" x="21.5" y="0" rx="5"/>
    <filter id="home-icons-V" width="300%" height="242.9%" x="-100%" y="-57.1%" filterUnits="objectBoundingBox">
      <feOffset dy="2" in="SourceAlpha" result="shadowOffsetOuter1"/>
      <feGaussianBlur in="shadowOffsetOuter1" result="shadowBlurOuter1" stdDeviation="3"/>
      <feComposite in="shadowBlurOuter1" in2="SourceAlpha" operator="out" result="shadowBlurOuter1"/>
      <feColorMatrix in="shadowBlurOuter1" values="0 0 0 0 0.219607843   0 0 0 0 0.258823529   0 0 0 0 0.329411765  0 0 0 0.1 0"/>
    </filter>
    <rect id="home-icons-Y" width="44" height="60" x="0" y="0" rx="4"/>
    <filter id="home-icons-X" width="145.5%" height="133.3%" x="-22.7%" y="-13.3%" filterUnits="objectBoundingBox">
      <feOffset dy="2" in="SourceAlpha" result="shadowOffsetOuter1"/>
      <feGaussianBlur in="shadowOffsetOuter1" result="shadowBlurOuter1" stdDeviation="3"/>
      <feComposite in="shadowBlurOuter1" in2="SourceAlpha" operator="out" result="shadowBlurOuter1"/>
      <feColorMatrix in="shadowBlurOuter1" values="0 0 0 0 0.219607843   0 0 0 0 0.258823529   0 0 0 0 0.329411765  0 0 0 0.1 0"/>
    </filter>
    <path id="home-icons-aa" d="M4,0 L40,0 C42.209139,-4.05812251e-16 44,1.790861 44,4 L44,7 L44,7 L0,7 L0,4 C-2.705415e-16,1.790861 1.790861,4.05812251e-16 4,0 Z"/>
    <filter id="home-icons-Z" width="145.5%" height="385.7%" x="-22.7%" y="-114.3%" filterUnits="objectBoundingBox">
      <feOffset dy="2" in="SourceAlpha" result="shadowOffsetOuter1"/>
      <feGaussianBlur in="shadowOffsetOuter1" result="shadowBlurOuter1" stdDeviation="3"/>
      <feComposite in="shadowBlurOuter1" in2="SourceAlpha" operator="out" result="shadowBlurOuter1"/>
      <feColorMatrix in="shadowBlurOuter1" values="0 0 0 0 0.219607843   0 0 0 0 0.258823529   0 0 0 0 0.329411765  0 0 0 0.1 0"/>
    </filter>
    <rect id="home-icons-ab" width="32" height="20" x="6" y="32" rx="2"/>
    <filter id="home-icons-ac" width="103.1%" height="105%" x="-1.6%" y="-2.5%" filterUnits="objectBoundingBox">
      <feOffset dy="1" in="SourceAlpha" result="shadowOffsetInner1"/>
      <feComposite in="shadowOffsetInner1" in2="SourceAlpha" k2="-1" k3="1" operator="arithmetic" result="shadowInnerInner1"/>
      <feColorMatrix in="shadowInnerInner1" values="0 0 0 0 0.219607843   0 0 0 0 0.258823529   0 0 0 0 0.329411765  0 0 0 0.05859375 0"/>
    </filter>
    <rect id="home-icons-ae" width="44" height="60" x="0" y="0" rx="4"/>
    <filter id="home-icons-ad" width="145.5%" height="133.3%" x="-22.7%" y="-13.3%" filterUnits="objectBoundingBox">
      <feOffset dy="2" in="SourceAlpha" result="shadowOffsetOuter1"/>
      <feGaussianBlur in="shadowOffsetOuter1" result="shadowBlurOuter1" stdDeviation="3"/>
      <feComposite in="shadowBlurOuter1" in2="SourceAlpha" operator="out" result="shadowBlurOuter1"/>
      <feColorMatrix in="shadowBlurOuter1" values="0 0 0 0 0.219607843   0 0 0 0 0.258823529   0 0 0 0 0.329411765  0 0 0 0.1 0"/>
    </filter>
    <path id="home-icons-ag" d="M4,0 L40,0 C42.209139,-4.05812251e-16 44,1.790861 44,4 L44,7 L44,7 L0,7 L0,4 C-2.705415e-16,1.790861 1.790861,4.05812251e-16 4,0 Z"/>
    <filter id="home-icons-af" width="145.5%" height="385.7%" x="-22.7%" y="-114.3%" filterUnits="objectBoundingBox">
      <feOffset dy="2" in="SourceAlpha" result="shadowOffsetOuter1"/>
      <feGaussianBlur in="shadowOffsetOuter1" result="shadowBlurOuter1" stdDeviation="3"/>
      <feComposite in="shadowBlurOuter1" in2="SourceAlpha" operator="out" result="shadowBlurOuter1"/>
      <feColorMatrix in="shadowBlurOuter1" values="0 0 0 0 0.219607843   0 0 0 0 0.258823529   0 0 0 0 0.329411765  0 0 0 0.1 0"/>
    </filter>
    <rect id="home-icons-ah" width="32" height="20" x="6" y="11" rx="2"/>
    <filter id="home-icons-ai" width="103.1%" height="105%" x="-1.6%" y="-2.5%" filterUnits="objectBoundingBox">
      <feOffset dy="1" in="SourceAlpha" result="shadowOffsetInner1"/>
      <feComposite in="shadowOffsetInner1" in2="SourceAlpha" k2="-1" k3="1" operator="arithmetic" result="shadowInnerInner1"/>
      <feColorMatrix in="shadowInnerInner1" values="0 0 0 0 0.219607843   0 0 0 0 0.258823529   0 0 0 0 0.329411765  0 0 0 0.05859375 0"/>
    </filter>
    <rect id="home-icons-ak" width="24" height="24" x="0" y="0" rx="2"/>
    <filter id="home-icons-aj" width="183.3%" height="183.3%" x="-41.7%" y="-33.3%" filterUnits="objectBoundingBox">
      <feOffset dy="2" in="SourceAlpha" result="shadowOffsetOuter1"/>
      <feGaussianBlur in="shadowOffsetOuter1" result="shadowBlurOuter1" stdDeviation="3"/>
      <feComposite in="shadowBlurOuter1" in2="SourceAlpha" operator="out" result="shadowBlurOuter1"/>
      <feColorMatrix in="shadowBlurOuter1" values="0 0 0 0 0.219607843   0 0 0 0 0.258823529   0 0 0 0 0.329411765  0 0 0 0.1 0"/>
    </filter>
    <rect id="home-icons-am" width="24" height="24" x="0" y="0" rx="2"/>
    <filter id="home-icons-al" width="183.3%" height="183.3%" x="-41.7%" y="-33.3%" filterUnits="objectBoundingBox">
      <feOffset dy="2" in="SourceAlpha" result="shadowOffsetOuter1"/>
      <feGaussianBlur in="shadowOffsetOuter1" result="shadowBlurOuter1" stdDeviation="3"/>
      <feComposite in="shadowBlurOuter1" in2="SourceAlpha" operator="out" result="shadowBlurOuter1"/>
      <feColorMatrix in="shadowBlurOuter1" values="0 0 0 0 0.219607843   0 0 0 0 0.258823529   0 0 0 0 0.329411765  0 0 0 0.1 0"/>
    </filter>
  </defs>
  <g fill="none" fill-rule="evenodd" transform="translate(6 4)">
    <g transform="translate(206)">
      <g transform="translate(27)">
        <use fill="#000" filter="url(#home-icons-a)" xlink:href="#home-icons-b"/>
        <rect width="59" height="75" x=".5" y=".5" fill="#FFF" stroke="#E1E1E1" stroke-linejoin="square" rx="4"/>
        <use fill="#000" filter="url(#home-icons-c)" xlink:href="#home-icons-d"/>
        <path fill="#FFF" stroke="#E1E1E1" stroke-linejoin="square" d="M56,0.5 C56.9664983,0.5 57.8414983,0.891750844 58.4748737,1.52512627 C59.1082492,2.15850169 59.5,3.03350169 59.5,4 L59.5,4 L59.5,9.5 L0.5,9.5 L0.5,4 C0.5,3.03350169 0.891750844,2.15850169 1.52512627,1.52512627 C2.15850169,0.891750844 3.03350169,0.5 4,0.5 L4,0.5 Z"/>
        <circle cx="6" cy="5" r="2" fill="#F15242"/>
        <circle cx="12" cy="5" r="2" fill="#FFC111"/>
        <circle cx="18" cy="5" r="2" fill="#6FD350"/>
        <use fill="#1B2E5B" fill-opacity=".1" xlink:href="#home-icons-e"/>
        <use fill="#000" filter="url(#home-icons-f)" xlink:href="#home-icons-e"/>
        <g fill="#F1F1F1" transform="translate(22 16)">
          <rect width="32" height="2" rx="1"/>
          <rect width="32" height="2" y="5" rx="1"/>
          <rect width="32" height="2" y="10" rx="1"/>
          <rect width="32" height="2" y="15" rx="1"/>
          <rect width="32" height="2" y="20" rx="1"/>
        </g>
      </g>
      <g transform="translate(95 13)">
        <use fill="#000" filter="url(#home-icons-g)" xlink:href="#home-icons-h"/>
        <rect width="59" height="49" x=".5" y=".5" fill="#1B2E5B" stroke="#49587C" stroke-linejoin="square" rx="2"/>
        <path fill="#1B2E5B" stroke="#FFF" stroke-opacity=".205" d="M58,0.5 C58.4142136,0.5 58.7892136,0.667893219 59.0606602,0.939339828 C59.3321068,1.21078644 59.5,1.58578644 59.5,2 L59.5,2 L59.5,7.5 L0.5,7.5 L0.5,2 C0.5,1.58578644 0.667893219,1.21078644 0.939339828,0.939339828 C1.21078644,0.667893219 1.58578644,0.5 2,0.5 L2,0.5 Z"/>
        <g fill="#FFF" transform="translate(6 14)">
          <circle cx="1" cy="1" r="1"/>
          <circle cx="5" cy="1" r="1"/>
          <circle cx="13" cy="1" r="1"/>
          <circle cx="17" cy="1" r="1"/>
          <circle cx="27" cy="1" r="1"/>
          <rect width="4" height="2" x="20" rx="1"/>
        </g>
        <g fill="#FFF" transform="translate(6 34)">
          <circle cx="1" cy="1" r="1"/>
          <circle cx="5" cy="1" r="1"/>
          <circle cx="9" cy="1" r="1"/>
          <circle cx="13" cy="1" r="1"/>
          <circle cx="17" cy="1" r="1"/>
          <rect width="4" height="2" x="20" rx="1"/>
        </g>
        <g fill="#FFF" transform="translate(6 39)">
          <circle cx="1" cy="1" r="1"/>
          <circle cx="5" cy="1" r="1"/>
          <circle cx="9" cy="1" r="1"/>
          <circle cx="17" cy="1" r="1"/>
        </g>
        <g fill="#FFF" transform="translate(10 19)">
          <circle cx="1" cy="1" r="1"/>
          <circle cx="5" cy="1" r="1"/>
          <rect width="4" height="2" x="8" rx="1"/>
          <circle cx="15" cy="1" r="1"/>
        </g>
        <g fill="#FFF" transform="translate(6 29)">
          <circle cx="1" cy="1" r="1"/>
          <circle cx="9" cy="1" r="1"/>
          <rect width="4" height="2" x="12" rx="1"/>
          <circle cx="19" cy="1" r="1"/>
          <circle cx="23" cy="1" r="1"/>
          <circle cx="27" cy="1" r="1"/>
        </g>
        <g fill="#FFF" transform="translate(10 24)">
          <circle cx="1" cy="1" r="1"/>
          <circle cx="5" cy="1" r="1"/>
          <circle cx="9" cy="1" r="1"/>
          <circle cx="13" cy="1" r="1"/>
          <circle cx="17" cy="1" r="1"/>
          <circle cx="21" cy="1" r="1"/>
        </g>
      </g>
      <g transform="translate(0 13)">
        <use fill="#000" filter="url(#home-icons-i)" xlink:href="#home-icons-j"/>
        <rect width="43" height="27" x=".5" y=".5" fill="#FFF" stroke="#E1E1E1" stroke-linejoin="square" rx="2"/>
        <circle cx="9" cy="9" r="3" fill="#1B2E5B" fill-opacity=".203"/>
        <polygon fill="#1B2E5B" fill-opacity=".203" points="18.517 12.889 28.247 17.333 40 4 40 24 4 24"/>
      </g>
    </g>
    <g transform="translate(25 108)">
      <g transform="matrix(-1 0 0 1 116 0)">
        <path stroke="#9D9D9D" stroke-dasharray="2 4" stroke-linecap="round" stroke-linejoin="round" d="M18,9.4 L46.3262153,9.4 C47.4307848,9.4 48.3262153,10.2954305 48.3262153,11.4 L48.3262153,22.4 L48.3262153,22.4"/>
        <use fill="#000" filter="url(#home-icons-k)" xlink:href="#home-icons-l"/>
        <rect width="17" height="17" x=".5" y=".5" fill="#FFF" stroke="#E1E1E1" stroke-linejoin="square" rx="4"/>
        <path fill="#1B2E5B" fill-opacity=".2" d="M9.35369781,8.30102728 C8.02702082,7.99452738 6.79191539,7.72609279 7.39021586,6.5968631 C9.21054011,3.16010935 7.87275605,1.32222222 5.95024682,1.32222222 C3.98960334,1.32222222 2.68514048,3.23104924 4.51027778,6.59735746 C5.12634956,7.73289016 3.8449647,8.00132476 2.54679583,8.30152164 C1.47410035,8.54919334 1.33575571,9.05516535 1.32230382,9.91163484 C1.31650346,10.2794347 1.62071358,10.5777778 1.98811055,10.5777778 L9.91151921,10.5777778 C10.2792864,10.5777778 10.5834965,10.2789404 10.5776962,9.91163484 C10.5647379,9.054671 10.4263933,8.54869898 9.35369781,8.30102728 L9.35369781,8.30102728 Z" transform="translate(3 3)"/>
      </g>
      <g transform="rotate(180 58 37.5)">
        <path stroke="#9D9D9D" stroke-dasharray="2 4" stroke-linecap="round" stroke-linejoin="round" d="M18,9.4 L44.3262153,9.4 C46.5353543,9.4 48.3262153,11.190861 48.3262153,13.4 L48.3262153,22.4 L48.3262153,22.4"/>
        <use fill="#000" filter="url(#home-icons-m)" xlink:href="#home-icons-n"/>
        <rect width="17" height="17" x=".5" y=".5" fill="#FFF" stroke="#E1E1E1" stroke-linejoin="square" rx="4"/>
        <g transform="matrix(1 0 0 -1 0 18)">
          <use fill="#1B2E5B" fill-opacity=".102" xlink:href="#home-icons-o"/>
          <use fill="#000" filter="url(#home-icons-p)" xlink:href="#home-icons-o"/>
        </g>
      </g>
      <g transform="rotate(180 58 23.5)">
        <line x1="18" x2="43.326" y1="9.4" y2="9.4" stroke="#9D9D9D" stroke-dasharray="2 4" stroke-linecap="round" stroke-linejoin="round"/>
        <use fill="#000" filter="url(#home-icons-q)" xlink:href="#home-icons-r"/>
        <rect width="17" height="17" x=".5" y=".5" fill="#FFF" stroke="#E1E1E1" stroke-linejoin="square" rx="4"/>
      </g>
      <path stroke="#9D9D9D" stroke-dasharray="2 4" stroke-linecap="round" stroke-linejoin="round" d="M18,9.4 L44.3262153,9.4 C45.4307848,9.4 46.3262153,10.2954305 46.3262153,11.4 L46.3262153,22.4 L46.3262153,22.4"/>
      <use fill="#000" filter="url(#home-icons-s)" xlink:href="#home-icons-t"/>
      <rect width="17" height="17" x=".5" y=".5" fill="#FFF" stroke="#E1E1E1" stroke-linejoin="square" rx="4"/>
      <path fill="#1B2E5B" fill-opacity=".2" d="M9.35369781,8.30102728 C8.02702082,7.99452738 6.79191539,7.72609279 7.39021586,6.5968631 C9.21054011,3.16010935 7.87275605,1.32222222 5.95024682,1.32222222 C3.98960334,1.32222222 2.68514048,3.23104924 4.51027778,6.59735746 C5.12634956,7.73289016 3.8449647,8.00132476 2.54679583,8.30152164 C1.47410035,8.54919334 1.33575571,9.05516535 1.32230382,9.91163484 C1.31650346,10.2794347 1.62071358,10.5777778 1.98811055,10.5777778 L9.91151921,10.5777778 C10.2792864,10.5777778 10.5834965,10.2789404 10.5776962,9.91163484 C10.5647379,9.054671 10.4263933,8.54869898 9.35369781,8.30102728 L9.35369781,8.30102728 Z" transform="translate(3 3)"/>
      <g transform="matrix(1 0 0 -1 0 75)">
        <path stroke="#9D9D9D" stroke-dasharray="2 4" stroke-linecap="round" stroke-linejoin="round" d="M18,9.4 L42.3262153,9.4 C44.5353543,9.4 46.3262153,11.190861 46.3262153,13.4 L46.3262153,22.4 L46.3262153,22.4"/>
        <use fill="#000" filter="url(#home-icons-u)" xlink:href="#home-icons-v"/>
        <rect width="17" height="17" x=".5" y=".5" fill="#FFF" stroke="#E1E1E1" stroke-linejoin="square" rx="4"/>
      </g>
      <g transform="matrix(1 0 0 -1 0 47)">
        <line x1="18" x2="43.326" y1="9.4" y2="9.4" stroke="#9D9D9D" stroke-dasharray="2 4" stroke-linecap="round" stroke-linejoin="round"/>
        <use fill="#000" filter="url(#home-icons-w)" xlink:href="#home-icons-x"/>
        <rect width="17" height="17" x=".5" y=".5" fill="#FFF" stroke="#E1E1E1" stroke-linejoin="square" rx="4"/>
        <g transform="matrix(1 0 0 -1 0 18)">
          <use fill="#1B2E5B" fill-opacity=".102" xlink:href="#home-icons-y"/>
          <use fill="#000" filter="url(#home-icons-z)" xlink:href="#home-icons-y"/>
        </g>
      </g>
      <mask id="home-icons-C" fill="#fff">
        <use xlink:href="#home-icons-A"/>
      </mask>
      <use fill="#000" filter="url(#home-icons-B)" xlink:href="#home-icons-A"/>
      <circle cx="57" cy="38" r="23" fill="#1B2E5B" stroke="#49587C" stroke-linejoin="square" stroke-width="2"/>
      <g fill="#FFF" mask="url(#home-icons-C)">
        <g transform="translate(47 42)">
          <circle cx="1" cy="1" r="1"/>
          <circle cx="5" cy="1" r="1"/>
          <circle cx="9" cy="1" r="1"/>
          <circle cx="13" cy="1" r="1"/>
          <rect width="4" height="2" x="16" rx="1"/>
        </g>
      </g>
      <g fill="#FFF" mask="url(#home-icons-C)">
        <g transform="translate(47 47)">
          <circle cx="1" cy="1" r="1"/>
          <circle cx="5" cy="1" r="1"/>
          <circle cx="13" cy="1" r="1"/>
        </g>
      </g>
      <g fill="#FFF" mask="url(#home-icons-C)">
        <g transform="translate(47 27)">
          <circle cx="1" cy="1" r="1"/>
          <circle cx="5" cy="1" r="1"/>
          <rect width="4" height="2" x="8" rx="1"/>
          <circle cx="15" cy="1" r="1"/>
        </g>
      </g>
      <g fill="#FFF" mask="url(#home-icons-C)">
        <g transform="translate(51 37)">
          <circle cx="1" cy="1" r="1"/>
          <rect width="4" height="2" x="4" rx="1"/>
          <circle cx="11" cy="1" r="1"/>
          <circle cx="15" cy="1" r="1"/>
          <circle cx="19" cy="1" r="1"/>
        </g>
      </g>
      <g fill="#FFF" mask="url(#home-icons-C)">
        <g transform="translate(47 32)">
          <circle cx="1" cy="1" r="1"/>
          <circle cx="5" cy="1" r="1"/>
          <circle cx="9" cy="1" r="1"/>
          <circle cx="13" cy="1" r="1"/>
          <circle cx="17" cy="1" r="1"/>
          <circle cx="21" cy="1" r="1"/>
        </g>
      </g>
    </g>
    <g transform="translate(0 1)">
      <g transform="translate(87 5)">
        <use fill="#000" filter="url(#home-icons-D)" xlink:href="#home-icons-E"/>
        <rect width="43" height="25" x=".5" y=".5" fill="#FFF" stroke="#E1E1E1" stroke-linejoin="square" rx="4"/>
        <use fill="#1B2E5B" fill-opacity=".102" xlink:href="#home-icons-F"/>
        <use fill="#000" filter="url(#home-icons-G)" xlink:href="#home-icons-F"/>
        <path fill="#1B2E5B" d="M12.4715971,11.0680364 C10.7026944,10.6593698 9.05588719,10.3014571 9.85362115,8.79581747 C12.2807201,4.21347913 10.4970081,1.76296296 7.93366243,1.76296296 C5.31947112,1.76296296 3.5801873,4.30806566 6.01370371,8.79647661 C6.83513274,10.3105202 5.1266196,10.668433 3.39572778,11.0686955 C1.96546713,11.3989244 1.78100761,12.0735538 1.76307176,13.2155131 C1.75533795,13.705913 2.16095145,14.1037037 2.65081407,14.1037037 L13.2153589,14.1037037 C13.7057152,14.1037037 14.1113287,13.7052538 14.1035949,13.2155131 C14.0863173,12.0728947 13.9018577,11.3982653 12.4715971,11.0680364 L12.4715971,11.0680364 Z" transform="translate(5 5)"/>
        <path fill="#1B2E5B" d="M12.4715971,11.0680364 C10.7026944,10.6593698 9.05588719,10.3014571 9.85362115,8.79581747 C12.2807201,4.21347913 10.4970081,1.76296296 7.93366243,1.76296296 C5.31947112,1.76296296 3.5801873,4.30806566 6.01370371,8.79647661 C6.83513274,10.3105202 5.1266196,10.668433 3.39572778,11.0686955 C1.96546713,11.3989244 1.78100761,12.0735538 1.76307176,13.2155131 C1.75533795,13.705913 2.16095145,14.1037037 2.65081407,14.1037037 L13.2153589,14.1037037 C13.7057152,14.1037037 14.1113287,13.7052538 14.1035949,13.2155131 C14.0863173,12.0728947 13.9018577,11.3982653 12.4715971,11.0680364 L12.4715971,11.0680364 Z" transform="translate(23 5)"/>
      </g>
      <use fill="#000" filter="url(#home-icons-H)" xlink:href="#home-icons-I"/>
      <rect width="43" height="43" x=".5" y=".5" fill="#FFF" stroke="#E1E1E1" stroke-linejoin="square" rx="4"/>
      <use fill="#1B2E5B" fill-opacity=".102" xlink:href="#home-icons-J"/>
      <use fill="#000" filter="url(#home-icons-K)" xlink:href="#home-icons-J"/>
      <path fill="#1B2E5B" d="M12.4715971,11.0680364 C10.7026944,10.6593698 9.05588719,10.3014571 9.85362115,8.79581747 C12.2807201,4.21347913 10.4970081,1.76296296 7.93366243,1.76296296 C5.31947112,1.76296296 3.5801873,4.30806566 6.01370371,8.79647661 C6.83513274,10.3105202 5.1266196,10.668433 3.39572778,11.0686955 C1.96546713,11.3989244 1.78100761,12.0735538 1.76307176,13.2155131 C1.75533795,13.705913 2.16095145,14.1037037 2.65081407,14.1037037 L13.2153589,14.1037037 C13.7057152,14.1037037 14.1113287,13.7052538 14.1035949,13.2155131 C14.0863173,12.0728947 13.9018577,11.3982653 12.4715971,11.0680364 L12.4715971,11.0680364 Z" transform="translate(5 5)"/>
      <path fill="#1B2E5B" d="M12.4715971,11.0680364 C10.7026944,10.6593698 9.05588719,10.3014571 9.85362115,8.79581747 C12.2807201,4.21347913 10.4970081,1.76296296 7.93366243,1.76296296 C5.31947112,1.76296296 3.5801873,4.30806566 6.01370371,8.79647661 C6.83513274,10.3105202 5.1266196,10.668433 3.39572778,11.0686955 C1.96546713,11.3989244 1.78100761,12.0735538 1.76307176,13.2155131 C1.75533795,13.705913 2.16095145,14.1037037 2.65081407,14.1037037 L13.2153589,14.1037037 C13.7057152,14.1037037 14.1113287,13.7052538 14.1035949,13.2155131 C14.0863173,12.0728947 13.9018577,11.3982653 12.4715971,11.0680364 L12.4715971,11.0680364 Z" transform="translate(23 5)"/>
      <path fill="#1B2E5B" d="M12.4715971,11.0680364 C10.7026944,10.6593698 9.05588719,10.3014571 9.85362115,8.79581747 C12.2807201,4.21347913 10.4970081,1.76296296 7.93366243,1.76296296 C5.31947112,1.76296296 3.5801873,4.30806566 6.01370371,8.79647661 C6.83513274,10.3105202 5.1266196,10.668433 3.39572778,11.0686955 C1.96546713,11.3989244 1.78100761,12.0735538 1.76307176,13.2155131 C1.75533795,13.705913 2.16095145,14.1037037 2.65081407,14.1037037 L13.2153589,14.1037037 C13.7057152,14.1037037 14.1113287,13.7052538 14.1035949,13.2155131 C14.0863173,12.0728947 13.9018577,11.3982653 12.4715971,11.0680364 L12.4715971,11.0680364 Z" transform="translate(23 23)"/>
      <path fill="#1B2E5B" d="M12.4715971,11.0680364 C10.7026944,10.6593698 9.05588719,10.3014571 9.85362115,8.79581747 C12.2807201,4.21347913 10.4970081,1.76296296 7.93366243,1.76296296 C5.31947112,1.76296296 3.5801873,4.30806566 6.01370371,8.79647661 C6.83513274,10.3105202 5.1266196,10.668433 3.39572778,11.0686955 C1.96546713,11.3989244 1.78100761,12.0735538 1.76307176,13.2155131 C1.75533795,13.705913 2.16095145,14.1037037 2.65081407,14.1037037 L13.2153589,14.1037037 C13.7057152,14.1037037 14.1113287,13.7052538 14.1035949,13.2155131 C14.0863173,12.0728947 13.9018577,11.3982653 12.4715971,11.0680364 L12.4715971,11.0680364 Z" transform="translate(5 23)"/>
      <g transform="translate(103 42)">
        <use fill="#000" filter="url(#home-icons-L)" xlink:href="#home-icons-M"/>
        <rect width="49" height="19" x=".5" y=".5" fill="#FFF" stroke="#E1E1E1" stroke-linejoin="square" rx="4"/>
        <rect width="28" height="2" x="6" y="9" fill="#F1F1F1" rx="1"/>
        <path fill="#E1E1E1" d="M43.4,5.53333333 L45.4,8.2 C45.5656854,8.4209139 45.5209139,8.73431458 45.3,8.9 C45.2134519,8.96491106 45.1081851,9 45,9 L41,9 C40.7238576,9 40.5,8.77614237 40.5,8.5 C40.5,8.39181489 40.5350889,8.28654809 40.6,8.2 L42.6,5.53333333 C42.7656854,5.31241943 43.0790861,5.26764791 43.3,5.43333333 C43.3379028,5.46176046 43.3715729,5.4954305 43.4,5.53333333 Z"/>
        <path fill="#E1E1E1" d="M43.4,11.5333333 L45.4,14.2 C45.5656854,14.4209139 45.5209139,14.7343146 45.3,14.9 C45.2134519,14.9649111 45.1081851,15 45,15 L41,15 C40.7238576,15 40.5,14.7761424 40.5,14.5 C40.5,14.3918149 40.5350889,14.2865481 40.6,14.2 L42.6,11.5333333 C42.7656854,11.3124194 43.0790861,11.2676479 43.3,11.4333333 C43.3379028,11.4617605 43.3715729,11.4954305 43.4,11.5333333 Z" transform="matrix(1 0 0 -1 0 26)"/>
      </g>
      <g transform="translate(116 55)">
        <use fill="#000" filter="url(#home-icons-N)" xlink:href="#home-icons-O"/>
        <rect width="49" height="19" x=".5" y=".5" fill="#FFF" stroke="#E1E1E1" stroke-linejoin="square" rx="4"/>
        <rect width="28" height="2" x="6" y="9" fill="#F1F1F1" rx="1"/>
        <path fill="#E1E1E1" d="M43.4,5.53333333 L45.4,8.2 C45.5656854,8.4209139 45.5209139,8.73431458 45.3,8.9 C45.2134519,8.96491106 45.1081851,9 45,9 L41,9 C40.7238576,9 40.5,8.77614237 40.5,8.5 C40.5,8.39181489 40.5350889,8.28654809 40.6,8.2 L42.6,5.53333333 C42.7656854,5.31241943 43.0790861,5.26764791 43.3,5.43333333 C43.3379028,5.46176046 43.3715729,5.4954305 43.4,5.53333333 Z"/>
        <path fill="#E1E1E1" d="M43.4,11.5333333 L45.4,14.2 C45.5656854,14.4209139 45.5209139,14.7343146 45.3,14.9 C45.2134519,14.9649111 45.1081851,15 45,15 L41,15 C40.7238576,15 40.5,14.7761424 40.5,14.5 C40.5,14.3918149 40.5350889,14.2865481 40.6,14.2 L42.6,11.5333333 C42.7656854,11.3124194 43.0790861,11.2676479 43.3,11.4333333 C43.3379028,11.4617605 43.3715729,11.4954305 43.4,11.5333333 Z" transform="matrix(1 0 0 -1 0 26)"/>
      </g>
      <g transform="translate(39 8)">
        <use fill="#000" filter="url(#home-icons-P)" xlink:href="#home-icons-Q"/>
        <path fill="#FFF" stroke="#E1E1E1" stroke-linejoin="square" d="M26.5,8.50462256 L26.5,35.3090093 L50.4791341,47.2992412 C48.2645027,51.5181154 44.9461175,55.0667567 40.907768,57.5615446 C36.8651219,60.058987 32.1008287,61.5 27,61.5 C19.6822271,61.5 13.0572271,58.5338865 8.2616703,53.7383297 C3.46611353,48.9427729 0.5,42.3177729 0.5,35 C0.5,27.6822271 3.46611353,21.0572271 8.2616703,16.2616703 C12.9477659,11.5755747 19.3807418,8.63635943 26.5,8.50462256 L26.5,8.50462256 Z"/>
        <use fill="#000" filter="url(#home-icons-R)" xlink:href="#home-icons-S"/>
        <path fill="#FFF" stroke="#E1E1E1" stroke-linejoin="square" d="M32.5,0.504622564 C39.6192582,0.636359429 46.0522341,3.5755747 50.7383297,8.2616703 C55.5338865,13.0572271 58.5,19.6822271 58.5,27 C58.5,31.0832279 57.5766472,34.9508117 55.9270746,38.4051776 L55.9270746,38.4051776 L32.5,26.6909907 Z"/>
      </g>
    </g>
    <g transform="translate(203 105)">
      <g transform="translate(30 67)">
        <use fill="#000" filter="url(#home-icons-T)" xlink:href="#home-icons-U"/>
        <rect width="99" height="5" x=".5" y="4.5" fill="#FFF" stroke="#E1E1E1" stroke-linejoin="square" rx="2.5"/>
        <path fill="#1B2E5B" fill-opacity=".05" d="M3,5 L27,5 L27,5 L27,9 L3,9 C1.8954305,9 1,8.1045695 1,7 C1,5.8954305 1.8954305,5 3,5 Z"/>
        <use fill="#000" filter="url(#home-icons-V)" xlink:href="#home-icons-W"/>
        <rect width="9" height="13" x="22" y=".5" fill="#FFF" stroke="#E1E1E1" stroke-linejoin="square" rx="4.5"/>
      </g>
      <g transform="translate(33)">
        <use fill="#000" filter="url(#home-icons-X)" xlink:href="#home-icons-Y"/>
        <rect width="43" height="59" x=".5" y=".5" fill="#FFF" stroke="#E1E1E1" stroke-linejoin="square" rx="4"/>
        <use fill="#000" filter="url(#home-icons-Z)" xlink:href="#home-icons-aa"/>
        <path fill="#FFF" stroke="#E1E1E1" stroke-linejoin="square" d="M40,0.5 C40.9664983,0.5 41.8414983,0.891750844 42.4748737,1.52512627 C43.1082492,2.15850169 43.5,3.03350169 43.5,4 L43.5,4 L43.5,6.5 L0.5,6.5 L0.5,4 C0.5,3.03350169 0.891750844,2.15850169 1.52512627,1.52512627 C2.15850169,0.891750844 3.03350169,0.5 4,0.5 L4,0.5 Z"/>
        <use fill="#1B2E5B" fill-opacity=".1" xlink:href="#home-icons-ab"/>
        <use fill="#000" filter="url(#home-icons-ac)" xlink:href="#home-icons-ab"/>
        <rect width="32" height="2" x="6" y="11" fill="#F1F1F1" rx="1"/>
        <rect width="32" height="2" x="6" y="15" fill="#F1F1F1" rx="1"/>
        <rect width="32" height="2" x="6" y="19" fill="#F1F1F1" rx="1"/>
        <rect width="32" height="2" x="6" y="23" fill="#F1F1F1" rx="1"/>
        <rect width="32" height="2" x="6" y="27" fill="#F1F1F1" rx="1"/>
      </g>
      <g transform="translate(83)">
        <use fill="#000" filter="url(#home-icons-ad)" xlink:href="#home-icons-ae"/>
        <rect width="43" height="59" x=".5" y=".5" fill="#FFF" stroke="#E1E1E1" stroke-linejoin="square" rx="4"/>
        <use fill="#000" filter="url(#home-icons-af)" xlink:href="#home-icons-ag"/>
        <path fill="#FFF" stroke="#E1E1E1" stroke-linejoin="square" d="M40,0.5 C40.9664983,0.5 41.8414983,0.891750844 42.4748737,1.52512627 C43.1082492,2.15850169 43.5,3.03350169 43.5,4 L43.5,4 L43.5,6.5 L0.5,6.5 L0.5,4 C0.5,3.03350169 0.891750844,2.15850169 1.52512627,1.52512627 C2.15850169,0.891750844 3.03350169,0.5 4,0.5 L4,0.5 Z"/>
        <use fill="#1B2E5B" fill-opacity=".1" xlink:href="#home-icons-ah"/>
        <use fill="#000" filter="url(#home-icons-ai)" xlink:href="#home-icons-ah"/>
        <rect width="32" height="2" x="6" y="34" fill="#F1F1F1" rx="1"/>
        <rect width="32" height="2" x="6" y="38" fill="#F1F1F1" rx="1"/>
        <rect width="32" height="2" x="6" y="42" fill="#F1F1F1" rx="1"/>
        <rect width="32" height="2" x="6" y="46" fill="#F1F1F1" rx="1"/>
        <rect width="32" height="2" x="6" y="50" fill="#F1F1F1" rx="1"/>
      </g>
      <g transform="translate(0 31)">
        <use fill="#000" filter="url(#home-icons-aj)" xlink:href="#home-icons-ak"/>
        <rect width="23" height="23" x=".5" y=".5" fill="#FFF" stroke="#E1E1E1" stroke-linejoin="square" rx="2"/>
        <rect width="4" height="6" x="4" y="13" fill="#1B2E5B" rx="1"/>
        <rect width="4" height="10" x="10" y="9" fill="#1B2E5B" rx="1"/>
        <rect width="4" height="14" x="16" y="5" fill="#1B2E5B" rx="1"/>
      </g>
      <g transform="translate(136 11)">
        <use fill="#000" filter="url(#home-icons-al)" xlink:href="#home-icons-am"/>
        <rect width="23" height="23" x=".5" y=".5" fill="#FFF" stroke="#E1E1E1" stroke-linejoin="square" rx="2"/>
        <polyline stroke="#1B2E5B" stroke-linecap="round" stroke-linejoin="round" stroke-width="2" points="5 13 9 17 14.205 7 18.73 10.5"/>
      </g>
      <line x1="55" x2="21.244" y1="43.5" y2="43.5" stroke="#9D9D9D" stroke-dasharray="2 4" stroke-linecap="round" stroke-linejoin="round"/>
      <line x1="137.92" x2="105" y1="23" y2="23" stroke="#9D9D9D" stroke-dasharray="2 4" stroke-linecap="round" stroke-linejoin="round" transform="rotate(180 121.46 23)"/>
    </g>
  </g>
</svg>
