<svg xmlns="http://www.w3.org/2000/svg" xmlns:xlink="http://www.w3.org/1999/xlink" width="383" height="88" viewBox="0 0 383 88">
  <defs>
    <rect id="home-icons-b" width="60" height="76" x="0" y="0" rx="4"/>
    <filter id="home-icons-a" width="133.3%" height="126.3%" x="-16.7%" y="-10.5%" filterUnits="objectBoundingBox">
      <feOffset dy="2" in="SourceAlpha" result="shadowOffsetOuter1"/>
      <feGaussianBlur in="shadowOffsetOuter1" result="shadowBlurOuter1" stdDeviation="3"/>
      <feComposite in="shadowBlurOuter1" in2="SourceAlpha" operator="out" result="shadowBlurOuter1"/>
      <feColorMatrix in="shadowBlurOuter1" values="0 0 0 0 0.219607843   0 0 0 0 0.258823529   0 0 0 0 0.329411765  0 0 0 0.1 0"/>
    </filter>
    <path id="home-icons-d" d="M4,0 L56,0 C58.209139,-4.33003142e-15 60,1.790861 60,4 L60,10 L60,10 L0,10 L0,4 C-2.705415e-16,1.790861 1.790861,4.05812251e-16 4,0 Z"/>
    <filter id="home-icons-c" width="133.3%" height="300%" x="-16.7%" y="-80%" filterUnits="objectBoundingBox">
      <feOffset dy="2" in="SourceAlpha" result="shadowOffsetOuter1"/>
      <feGaussianBlur in="shadowOffsetOuter1" result="shadowBlurOuter1" stdDeviation="3"/>
      <feComposite in="shadowBlurOuter1" in2="SourceAlpha" operator="out" result="shadowBlurOuter1"/>
      <feColorMatrix in="shadowBlurOuter1" values="0 0 0 0 0.219607843   0 0 0 0 0.258823529   0 0 0 0 0.329411765  0 0 0 0.1 0"/>
    </filter>
    <rect id="home-icons-e" width="48" height="25" x="6" y="44" rx="2"/>
    <filter id="home-icons-f" width="102.1%" height="104%" x="-1%" y="-2%" filterUnits="objectBoundingBox">
      <feOffset dy="1" in="SourceAlpha" result="shadowOffsetInner1"/>
      <feComposite in="shadowOffsetInner1" in2="SourceAlpha" k2="-1" k3="1" operator="arithmetic" result="shadowInnerInner1"/>
      <feColorMatrix in="shadowInnerInner1" values="0 0 0 0 0.219607843   0 0 0 0 0.258823529   0 0 0 0 0.329411765  0 0 0 0.05859375 0"/>
    </filter>
    <rect id="home-icons-h" width="60" height="50" x="0" y="0" rx="2"/>
    <filter id="home-icons-g" width="145%" height="154%" x="-22.5%" y="-21%" filterUnits="objectBoundingBox">
      <feOffset dy="3" in="SourceAlpha" result="shadowOffsetOuter1"/>
      <feGaussianBlur in="shadowOffsetOuter1" result="shadowBlurOuter1" stdDeviation="4"/>
      <feComposite in="shadowBlurOuter1" in2="SourceAlpha" operator="out" result="shadowBlurOuter1"/>
      <feColorMatrix in="shadowBlurOuter1" values="0 0 0 0 0.219607843   0 0 0 0 0.258823529   0 0 0 0 0.329411765  0 0 0 0.1 0"/>
    </filter>
    <rect id="home-icons-j" width="44" height="28" x="0" y="0" rx="2"/>
    <filter id="home-icons-i" width="145.5%" height="171.4%" x="-22.7%" y="-28.6%" filterUnits="objectBoundingBox">
      <feOffset dy="2" in="SourceAlpha" result="shadowOffsetOuter1"/>
      <feGaussianBlur in="shadowOffsetOuter1" result="shadowBlurOuter1" stdDeviation="3"/>
      <feComposite in="shadowBlurOuter1" in2="SourceAlpha" operator="out" result="shadowBlurOuter1"/>
      <feColorMatrix in="shadowBlurOuter1" values="0 0 0 0 0.219607843   0 0 0 0 0.258823529   0 0 0 0 0.329411765  0 0 0 0.1 0"/>
    </filter>
    <rect id="home-icons-l" width="44" height="26" x="0" y="0" rx="4"/>
    <filter id="home-icons-k" width="145.5%" height="176.9%" x="-22.7%" y="-30.8%" filterUnits="objectBoundingBox">
      <feOffset dy="2" in="SourceAlpha" result="shadowOffsetOuter1"/>
      <feGaussianBlur in="shadowOffsetOuter1" result="shadowBlurOuter1" stdDeviation="3"/>
      <feComposite in="shadowBlurOuter1" in2="SourceAlpha" operator="out" result="shadowBlurOuter1"/>
      <feColorMatrix in="shadowBlurOuter1" values="0 0 0 0 0.219607843   0 0 0 0 0.258823529   0 0 0 0 0.329411765  0 0 0 0.1 0"/>
    </filter>
    <rect id="home-icons-m" width="40" height="22" x="2" y="2" rx="2"/>
    <filter id="home-icons-n" width="102.5%" height="104.5%" x="-1.2%" y="-2.3%" filterUnits="objectBoundingBox">
      <feOffset dy="1" in="SourceAlpha" result="shadowOffsetInner1"/>
      <feComposite in="shadowOffsetInner1" in2="SourceAlpha" k2="-1" k3="1" operator="arithmetic" result="shadowInnerInner1"/>
      <feColorMatrix in="shadowInnerInner1" values="0 0 0 0 0.219607843   0 0 0 0 0.258823529   0 0 0 0 0.329411765  0 0 0 0.05859375 0"/>
    </filter>
    <rect id="home-icons-p" width="44" height="44" x="0" y="0" rx="4"/>
    <filter id="home-icons-o" width="145.5%" height="145.5%" x="-22.7%" y="-18.2%" filterUnits="objectBoundingBox">
      <feOffset dy="2" in="SourceAlpha" result="shadowOffsetOuter1"/>
      <feGaussianBlur in="shadowOffsetOuter1" result="shadowBlurOuter1" stdDeviation="3"/>
      <feComposite in="shadowBlurOuter1" in2="SourceAlpha" operator="out" result="shadowBlurOuter1"/>
      <feColorMatrix in="shadowBlurOuter1" values="0 0 0 0 0.219607843   0 0 0 0 0.258823529   0 0 0 0 0.329411765  0 0 0 0.1 0"/>
    </filter>
    <rect id="home-icons-q" width="40" height="40" x="2" y="2" rx="2"/>
    <filter id="home-icons-r" width="102.5%" height="102.5%" x="-1.2%" y="-1.2%" filterUnits="objectBoundingBox">
      <feOffset dy="1" in="SourceAlpha" result="shadowOffsetInner1"/>
      <feComposite in="shadowOffsetInner1" in2="SourceAlpha" k2="-1" k3="1" operator="arithmetic" result="shadowInnerInner1"/>
      <feColorMatrix in="shadowInnerInner1" values="0 0 0 0 0.219607843   0 0 0 0 0.258823529   0 0 0 0 0.329411765  0 0 0 0.05859375 0"/>
    </filter>
    <rect id="home-icons-t" width="50" height="20" x="0" y="0" rx="4"/>
    <filter id="home-icons-s" width="140%" height="200%" x="-20%" y="-40%" filterUnits="objectBoundingBox">
      <feOffset dy="2" in="SourceAlpha" result="shadowOffsetOuter1"/>
      <feGaussianBlur in="shadowOffsetOuter1" result="shadowBlurOuter1" stdDeviation="3"/>
      <feComposite in="shadowBlurOuter1" in2="SourceAlpha" operator="out" result="shadowBlurOuter1"/>
      <feColorMatrix in="shadowBlurOuter1" values="0 0 0 0 0.219607843   0 0 0 0 0.258823529   0 0 0 0 0.329411765  0 0 0 0.1 0"/>
    </filter>
    <rect id="home-icons-v" width="50" height="20" x="0" y="0" rx="4"/>
    <filter id="home-icons-u" width="140%" height="200%" x="-20%" y="-40%" filterUnits="objectBoundingBox">
      <feOffset dy="2" in="SourceAlpha" result="shadowOffsetOuter1"/>
      <feGaussianBlur in="shadowOffsetOuter1" result="shadowBlurOuter1" stdDeviation="3"/>
      <feComposite in="shadowBlurOuter1" in2="SourceAlpha" operator="out" result="shadowBlurOuter1"/>
      <feColorMatrix in="shadowBlurOuter1" values="0 0 0 0 0.219607843   0 0 0 0 0.258823529   0 0 0 0 0.329411765  0 0 0 0.1 0"/>
    </filter>
    <path id="home-icons-x" d="M27,8 L27,35 L51.1545486,47.0779441 C46.7216501,55.9260017 37.5701542,62 27,62 C12.0883118,62 0,49.9116882 0,35 C0,20.0883118 12.0883118,8 27,8 L27,8 Z"/>
    <filter id="home-icons-w" width="139.1%" height="137%" x="-19.5%" y="-14.8%" filterUnits="objectBoundingBox">
      <feOffset dy="2" in="SourceAlpha" result="shadowOffsetOuter1"/>
      <feGaussianBlur in="shadowOffsetOuter1" result="shadowBlurOuter1" stdDeviation="3"/>
      <feComposite in="shadowBlurOuter1" in2="SourceAlpha" operator="out" result="shadowBlurOuter1"/>
      <feColorMatrix in="shadowBlurOuter1" values="0 0 0 0 0.219607843   0 0 0 0 0.258823529   0 0 0 0 0.329411765  0 0 0 0.1 0"/>
    </filter>
    <path id="home-icons-z" d="M32,0 C46.9116882,0 59,12.0883118 59,27 C59,31.341534 57.975296,35.4437356 56.1545486,39.0779441 L32,27 Z"/>
    <filter id="home-icons-y" width="174.1%" height="151.2%" x="-37%" y="-20.5%" filterUnits="objectBoundingBox">
      <feOffset dy="2" in="SourceAlpha" result="shadowOffsetOuter1"/>
      <feGaussianBlur in="shadowOffsetOuter1" result="shadowBlurOuter1" stdDeviation="3"/>
      <feComposite in="shadowBlurOuter1" in2="SourceAlpha" operator="out" result="shadowBlurOuter1"/>
      <feColorMatrix in="shadowBlurOuter1" values="0 0 0 0 0.219607843   0 0 0 0 0.258823529   0 0 0 0 0.329411765  0 0 0 0.1 0"/>
    </filter>
  </defs>
  <g fill="none" fill-rule="evenodd" transform="translate(6 4)">
    <g transform="translate(214)">
      <g transform="translate(27)">
        <use fill="#000" filter="url(#home-icons-a)" xlink:href="#home-icons-b"/>
        <rect width="59" height="75" x=".5" y=".5" fill="#FFF" stroke="#E1E1E1" stroke-linejoin="square" rx="4"/>
        <use fill="#000" filter="url(#home-icons-c)" xlink:href="#home-icons-d"/>
        <path fill="#FFF" stroke="#E1E1E1" stroke-linejoin="square" d="M56,0.5 C56.9664983,0.5 57.8414983,0.891750844 58.4748737,1.52512627 C59.1082492,2.15850169 59.5,3.03350169 59.5,4 L59.5,4 L59.5,9.5 L0.5,9.5 L0.5,4 C0.5,3.03350169 0.891750844,2.15850169 1.52512627,1.52512627 C2.15850169,0.891750844 3.03350169,0.5 4,0.5 L4,0.5 Z"/>
        <circle cx="6" cy="5" r="2" fill="#F15242"/>
        <circle cx="12" cy="5" r="2" fill="#FFC111"/>
        <circle cx="18" cy="5" r="2" fill="#6FD350"/>
        <use fill="#1B2E5B" fill-opacity=".1" xlink:href="#home-icons-e"/>
        <use fill="#000" filter="url(#home-icons-f)" xlink:href="#home-icons-e"/>
        <g fill="#F1F1F1" transform="translate(22 16)">
          <rect width="32" height="2" rx="1"/>
          <rect width="32" height="2" y="5" rx="1"/>
          <rect width="32" height="2" y="10" rx="1"/>
          <rect width="32" height="2" y="15" rx="1"/>
          <rect width="32" height="2" y="20" rx="1"/>
        </g>
      </g>
      <g transform="translate(95 13)">
        <use fill="#000" filter="url(#home-icons-g)" xlink:href="#home-icons-h"/>
        <rect width="59" height="49" x=".5" y=".5" fill="#1B2E5B" stroke="#49587C" stroke-linejoin="square" rx="2"/>
        <path fill="#1B2E5B" stroke="#FFF" stroke-opacity=".205" d="M58,0.5 C58.4142136,0.5 58.7892136,0.667893219 59.0606602,0.939339828 C59.3321068,1.21078644 59.5,1.58578644 59.5,2 L59.5,2 L59.5,7.5 L0.5,7.5 L0.5,2 C0.5,1.58578644 0.667893219,1.21078644 0.939339828,0.939339828 C1.21078644,0.667893219 1.58578644,0.5 2,0.5 L2,0.5 Z"/>
        <g fill="#FFF" transform="translate(6 14)">
          <circle cx="1" cy="1" r="1"/>
          <circle cx="5" cy="1" r="1"/>
          <circle cx="13" cy="1" r="1"/>
          <circle cx="17" cy="1" r="1"/>
          <circle cx="27" cy="1" r="1"/>
          <rect width="4" height="2" x="20" rx="1"/>
        </g>
        <g fill="#FFF" transform="translate(6 34)">
          <circle cx="1" cy="1" r="1"/>
          <circle cx="5" cy="1" r="1"/>
          <circle cx="9" cy="1" r="1"/>
          <circle cx="13" cy="1" r="1"/>
          <circle cx="17" cy="1" r="1"/>
          <rect width="4" height="2" x="20" rx="1"/>
        </g>
        <g fill="#FFF" transform="translate(6 39)">
          <circle cx="1" cy="1" r="1"/>
          <circle cx="5" cy="1" r="1"/>
          <circle cx="9" cy="1" r="1"/>
          <circle cx="17" cy="1" r="1"/>
        </g>
        <g fill="#FFF" transform="translate(10 19)">
          <circle cx="1" cy="1" r="1"/>
          <circle cx="5" cy="1" r="1"/>
          <rect width="4" height="2" x="8" rx="1"/>
          <circle cx="15" cy="1" r="1"/>
        </g>
        <g fill="#FFF" transform="translate(6 29)">
          <circle cx="1" cy="1" r="1"/>
          <circle cx="9" cy="1" r="1"/>
          <rect width="4" height="2" x="12" rx="1"/>
          <circle cx="19" cy="1" r="1"/>
          <circle cx="23" cy="1" r="1"/>
          <circle cx="27" cy="1" r="1"/>
        </g>
        <g fill="#FFF" transform="translate(10 24)">
          <circle cx="1" cy="1" r="1"/>
          <circle cx="5" cy="1" r="1"/>
          <circle cx="9" cy="1" r="1"/>
          <circle cx="13" cy="1" r="1"/>
          <circle cx="17" cy="1" r="1"/>
          <circle cx="21" cy="1" r="1"/>
        </g>
      </g>
      <g transform="translate(0 13)">
        <use fill="#000" filter="url(#home-icons-i)" xlink:href="#home-icons-j"/>
        <rect width="43" height="27" x=".5" y=".5" fill="#FFF" stroke="#E1E1E1" stroke-linejoin="square" rx="2"/>
        <circle cx="9" cy="9" r="3" fill="#1B2E5B" fill-opacity=".203"/>
        <polygon fill="#1B2E5B" fill-opacity=".203" points="18.517 12.889 28.247 17.333 40 4 40 24 4 24"/>
      </g>
    </g>
    <g transform="translate(0 1)">
      <g transform="translate(87 5)">
        <use fill="#000" filter="url(#home-icons-k)" xlink:href="#home-icons-l"/>
        <rect width="43" height="25" x=".5" y=".5" fill="#FFF" stroke="#E1E1E1" stroke-linejoin="square" rx="4"/>
        <use fill="#1B2E5B" fill-opacity=".102" xlink:href="#home-icons-m"/>
        <use fill="#000" filter="url(#home-icons-n)" xlink:href="#home-icons-m"/>
        <path fill="#1B2E5B" d="M12.4715971,11.0680364 C10.7026944,10.6593698 9.05588719,10.3014571 9.85362115,8.79581747 C12.2807201,4.21347913 10.4970081,1.76296296 7.93366243,1.76296296 C5.31947112,1.76296296 3.5801873,4.30806566 6.01370371,8.79647661 C6.83513274,10.3105202 5.1266196,10.668433 3.39572778,11.0686955 C1.96546713,11.3989244 1.78100761,12.0735538 1.76307176,13.2155131 C1.75533795,13.705913 2.16095145,14.1037037 2.65081407,14.1037037 L13.2153589,14.1037037 C13.7057152,14.1037037 14.1113287,13.7052538 14.1035949,13.2155131 C14.0863173,12.0728947 13.9018577,11.3982653 12.4715971,11.0680364 L12.4715971,11.0680364 Z" transform="translate(5 5)"/>
        <path fill="#1B2E5B" d="M12.4715971,11.0680364 C10.7026944,10.6593698 9.05588719,10.3014571 9.85362115,8.79581747 C12.2807201,4.21347913 10.4970081,1.76296296 7.93366243,1.76296296 C5.31947112,1.76296296 3.5801873,4.30806566 6.01370371,8.79647661 C6.83513274,10.3105202 5.1266196,10.668433 3.39572778,11.0686955 C1.96546713,11.3989244 1.78100761,12.0735538 1.76307176,13.2155131 C1.75533795,13.705913 2.16095145,14.1037037 2.65081407,14.1037037 L13.2153589,14.1037037 C13.7057152,14.1037037 14.1113287,13.7052538 14.1035949,13.2155131 C14.0863173,12.0728947 13.9018577,11.3982653 12.4715971,11.0680364 L12.4715971,11.0680364 Z" transform="translate(23 5)"/>
      </g>
      <use fill="#000" filter="url(#home-icons-o)" xlink:href="#home-icons-p"/>
      <rect width="43" height="43" x=".5" y=".5" fill="#FFF" stroke="#E1E1E1" stroke-linejoin="square" rx="4"/>
      <use fill="#1B2E5B" fill-opacity=".102" xlink:href="#home-icons-q"/>
      <use fill="#000" filter="url(#home-icons-r)" xlink:href="#home-icons-q"/>
      <path fill="#1B2E5B" d="M12.4715971,11.0680364 C10.7026944,10.6593698 9.05588719,10.3014571 9.85362115,8.79581747 C12.2807201,4.21347913 10.4970081,1.76296296 7.93366243,1.76296296 C5.31947112,1.76296296 3.5801873,4.30806566 6.01370371,8.79647661 C6.83513274,10.3105202 5.1266196,10.668433 3.39572778,11.0686955 C1.96546713,11.3989244 1.78100761,12.0735538 1.76307176,13.2155131 C1.75533795,13.705913 2.16095145,14.1037037 2.65081407,14.1037037 L13.2153589,14.1037037 C13.7057152,14.1037037 14.1113287,13.7052538 14.1035949,13.2155131 C14.0863173,12.0728947 13.9018577,11.3982653 12.4715971,11.0680364 L12.4715971,11.0680364 Z" transform="translate(5 5)"/>
      <path fill="#1B2E5B" d="M12.4715971,11.0680364 C10.7026944,10.6593698 9.05588719,10.3014571 9.85362115,8.79581747 C12.2807201,4.21347913 10.4970081,1.76296296 7.93366243,1.76296296 C5.31947112,1.76296296 3.5801873,4.30806566 6.01370371,8.79647661 C6.83513274,10.3105202 5.1266196,10.668433 3.39572778,11.0686955 C1.96546713,11.3989244 1.78100761,12.0735538 1.76307176,13.2155131 C1.75533795,13.705913 2.16095145,14.1037037 2.65081407,14.1037037 L13.2153589,14.1037037 C13.7057152,14.1037037 14.1113287,13.7052538 14.1035949,13.2155131 C14.0863173,12.0728947 13.9018577,11.3982653 12.4715971,11.0680364 L12.4715971,11.0680364 Z" transform="translate(23 5)"/>
      <path fill="#1B2E5B" d="M12.4715971,11.0680364 C10.7026944,10.6593698 9.05588719,10.3014571 9.85362115,8.79581747 C12.2807201,4.21347913 10.4970081,1.76296296 7.93366243,1.76296296 C5.31947112,1.76296296 3.5801873,4.30806566 6.01370371,8.79647661 C6.83513274,10.3105202 5.1266196,10.668433 3.39572778,11.0686955 C1.96546713,11.3989244 1.78100761,12.0735538 1.76307176,13.2155131 C1.75533795,13.705913 2.16095145,14.1037037 2.65081407,14.1037037 L13.2153589,14.1037037 C13.7057152,14.1037037 14.1113287,13.7052538 14.1035949,13.2155131 C14.0863173,12.0728947 13.9018577,11.3982653 12.4715971,11.0680364 L12.4715971,11.0680364 Z" transform="translate(23 23)"/>
      <path fill="#1B2E5B" d="M12.4715971,11.0680364 C10.7026944,10.6593698 9.05588719,10.3014571 9.85362115,8.79581747 C12.2807201,4.21347913 10.4970081,1.76296296 7.93366243,1.76296296 C5.31947112,1.76296296 3.5801873,4.30806566 6.01370371,8.79647661 C6.83513274,10.3105202 5.1266196,10.668433 3.39572778,11.0686955 C1.96546713,11.3989244 1.78100761,12.0735538 1.76307176,13.2155131 C1.75533795,13.705913 2.16095145,14.1037037 2.65081407,14.1037037 L13.2153589,14.1037037 C13.7057152,14.1037037 14.1113287,13.7052538 14.1035949,13.2155131 C14.0863173,12.0728947 13.9018577,11.3982653 12.4715971,11.0680364 L12.4715971,11.0680364 Z" transform="translate(5 23)"/>
      <g transform="translate(103 42)">
        <use fill="#000" filter="url(#home-icons-s)" xlink:href="#home-icons-t"/>
        <rect width="49" height="19" x=".5" y=".5" fill="#FFF" stroke="#E1E1E1" stroke-linejoin="square" rx="4"/>
        <rect width="28" height="2" x="6" y="9" fill="#F1F1F1" rx="1"/>
        <path fill="#E1E1E1" d="M43.4,5.53333333 L45.4,8.2 C45.5656854,8.4209139 45.5209139,8.73431458 45.3,8.9 C45.2134519,8.96491106 45.1081851,9 45,9 L41,9 C40.7238576,9 40.5,8.77614237 40.5,8.5 C40.5,8.39181489 40.5350889,8.28654809 40.6,8.2 L42.6,5.53333333 C42.7656854,5.31241943 43.0790861,5.26764791 43.3,5.43333333 C43.3379028,5.46176046 43.3715729,5.4954305 43.4,5.53333333 Z"/>
        <path fill="#E1E1E1" d="M43.4,11.5333333 L45.4,14.2 C45.5656854,14.4209139 45.5209139,14.7343146 45.3,14.9 C45.2134519,14.9649111 45.1081851,15 45,15 L41,15 C40.7238576,15 40.5,14.7761424 40.5,14.5 C40.5,14.3918149 40.5350889,14.2865481 40.6,14.2 L42.6,11.5333333 C42.7656854,11.3124194 43.0790861,11.2676479 43.3,11.4333333 C43.3379028,11.4617605 43.3715729,11.4954305 43.4,11.5333333 Z" transform="matrix(1 0 0 -1 0 26)"/>
      </g>
      <g transform="translate(116 55)">
        <use fill="#000" filter="url(#home-icons-u)" xlink:href="#home-icons-v"/>
        <rect width="49" height="19" x=".5" y=".5" fill="#FFF" stroke="#E1E1E1" stroke-linejoin="square" rx="4"/>
        <rect width="28" height="2" x="6" y="9" fill="#F1F1F1" rx="1"/>
        <path fill="#E1E1E1" d="M43.4,5.53333333 L45.4,8.2 C45.5656854,8.4209139 45.5209139,8.73431458 45.3,8.9 C45.2134519,8.96491106 45.1081851,9 45,9 L41,9 C40.7238576,9 40.5,8.77614237 40.5,8.5 C40.5,8.39181489 40.5350889,8.28654809 40.6,8.2 L42.6,5.53333333 C42.7656854,5.31241943 43.0790861,5.26764791 43.3,5.43333333 C43.3379028,5.46176046 43.3715729,5.4954305 43.4,5.53333333 Z"/>
        <path fill="#E1E1E1" d="M43.4,11.5333333 L45.4,14.2 C45.5656854,14.4209139 45.5209139,14.7343146 45.3,14.9 C45.2134519,14.9649111 45.1081851,15 45,15 L41,15 C40.7238576,15 40.5,14.7761424 40.5,14.5 C40.5,14.3918149 40.5350889,14.2865481 40.6,14.2 L42.6,11.5333333 C42.7656854,11.3124194 43.0790861,11.2676479 43.3,11.4333333 C43.3379028,11.4617605 43.3715729,11.4954305 43.4,11.5333333 Z" transform="matrix(1 0 0 -1 0 26)"/>
      </g>
      <g transform="translate(39 8)">
        <use fill="#000" filter="url(#home-icons-w)" xlink:href="#home-icons-x"/>
        <path fill="#FFF" stroke="#E1E1E1" stroke-linejoin="square" d="M26.5,8.50462256 L26.5,35.3090093 L50.4791341,47.2992412 C48.2645027,51.5181154 44.9461175,55.0667567 40.907768,57.5615446 C36.8651219,60.058987 32.1008287,61.5 27,61.5 C19.6822271,61.5 13.0572271,58.5338865 8.2616703,53.7383297 C3.46611353,48.9427729 0.5,42.3177729 0.5,35 C0.5,27.6822271 3.46611353,21.0572271 8.2616703,16.2616703 C12.9477659,11.5755747 19.3807418,8.63635943 26.5,8.50462256 L26.5,8.50462256 Z"/>
        <use fill="#000" filter="url(#home-icons-y)" xlink:href="#home-icons-z"/>
        <path fill="#FFF" stroke="#E1E1E1" stroke-linejoin="square" d="M32.5,0.504622564 C39.6192582,0.636359429 46.0522341,3.5755747 50.7383297,8.2616703 C55.5338865,13.0572271 58.5,19.6822271 58.5,27 C58.5,31.0832279 57.5766472,34.9508117 55.9270746,38.4051776 L55.9270746,38.4051776 L32.5,26.6909907 Z"/>
      </g>
    </g>
  </g>
</svg>
