<svg xmlns="http://www.w3.org/2000/svg" width="296" height="56" viewBox="0 0 296 56">
  <g fill="none" fill-rule="evenodd">
    <g transform="translate(80)">
      <g transform="translate(6 7)">
        <rect width="44" height="18" stroke="#F15242" stroke-width="2" rx="9"/>
        <circle cx="9" cy="9" r="7" fill="#F8A8A0"/>
      </g>
      <g transform="translate(6 31)">
        <rect width="44" height="18" stroke="#F15242" stroke-width="2" rx="9"/>
        <circle cx="35" cy="9" r="7" fill="#F8A8A0"/>
      </g>
    </g>
    <g transform="translate(10 10)">
      <path fill="#B786FD" d="M18,0 C27.9411255,0 36,8.0588745 36,18 C36,27.9411255 27.9411255,36 18,36 C8.0588745,36 0,27.9411255 0,18 C0,16.2458124 0.250931599,14.550233 0.718857866,12.9471988 C1.26896484,13.5920081 2.08683662,14 3,14 C4.65685425,14 6,12.6568542 6,11 L6,11 L6.00047628,4.58293469 C9.18495825,1.73294861 13.3901032,0 18,0 Z"/>
      <rect width="2" height="16" x="17" y="2" fill="#FFF" rx="1"/>
      <circle cx="18" cy="18" r="2" fill="#FFF"/>
    </g>
    <path stroke="#6F0DFB" stroke-dasharray="106.14 15" stroke-linecap="round" stroke-linejoin="round" stroke-width="2" d="M28,49 C39.5979797,49 49,39.5979797 49,28 C49,16.4020203 39.5979797,7 28,7 C16.4020203,7 7,16.4020203 7,28 C7,39.5979797 16.4020203,49 28,49 Z" transform="rotate(101 28 28)"/>
    <path fill="#6F0DFB" d="M13,12 C13.5522847,12 14,12.4477153 14,13 L14,21 C14,21.5522847 13.5522847,22 13,22 C12.4477153,22 12,21.5522847 12,21 L12,14 L5,14 C4.44771525,14 4,13.5522847 4,13 C4,12.4477153 4.44771525,12 5,12 L13,12 L13,12 Z"/>
    <g stroke="#FFC111" transform="translate(240)">
      <rect width="14" height="26" x="10" y="6" stroke-width="2" rx="2"/>
      <rect width="44" height="6" x="6" y="41" stroke-width="2" rx="3"/>
      <rect width="4" height="12" x="19" y="38" fill="#FFE088" rx="1"/>
      <rect width="14" height="26" x="32" y="6" fill="#FFE088" stroke-width="2" rx="2"/>
    </g>
    <g stroke="#7ABD66" stroke-width="2" transform="translate(160)">
      <rect width="18" height="18" x="7" y="7" rx="2"/>
      <rect width="18" height="18" x="31" y="31" rx="2"/>
      <rect width="18" height="18" x="7" y="31" rx="2"/>
      <rect width="18" height="18" x="31" y="7" fill="#B7E9A7" rx="2"/>
    </g>
  </g>
</svg>
