<svg xmlns="http://www.w3.org/2000/svg" width="56" height="56" viewBox="0 0 56 56"><path  d="M22.0836589,44.985924 C19.9815395,43.0325587 19.3675153,38.927308 20.243326,35.9534884 C21.7618616,37.8285953 23.8657204,38.4223865 26.0452452,38.7579692 C29.4097669,39.2752706 32.7142778,39.0816142 35.8396258,37.5182145 C36.1970818,37.3391486 36.5275763,37.1012784 36.9180818,36.8598711 C37.2116131,37.725135 37.2877138,38.5983574 37.1855214,39.4874968 C36.9363459,41.6522041 35.876589,43.3243697 34.1915015,44.5919791 C33.5174665,45.0991113 32.804294,45.5523027 32.108516,46.0302538 C29.9703031,47.4994781 29.3919376,49.2224896 30.1951264,51.7285273 C30.2142603,51.7899845 30.2316547,51.8509995 30.274706,52 C29.1832042,51.503037 28.3856686,50.7796993 27.7777325,49.8286607 C27.1363121,48.8250076 26.8310395,47.7152414 26.8149496,46.5135105 C26.8066873,45.9290042 26.8066873,45.3391922 26.729282,44.7626443 C26.5405522,43.35753 25.8917391,42.7283678 24.6693441,42.6921125 C23.4152041,42.6549729 22.4228507,43.4433048 22.1597596,44.6848281 C22.139756,44.7803299 22.1106203,44.8745052 22.0814846,44.9854819 L22.083224,44.985924 L22.0836589,44.985924 Z M9,35.9534884 C9,35.9534884 15.4121752,32.9524146 21.8422691,32.9524146 L26.6901495,18.5346053 C26.8715754,17.8372818 27.4015184,17.3637906 28,17.3637906 C28.5980337,17.3637906 29.1279766,17.8372818 29.3098505,18.5346053 L34.1577309,32.9519841 C41.7731409,32.9519841 47,35.9534884 47,35.9534884 C47,35.9534884 36.1081718,7.44285704 36.0871175,7.38560764 C35.7744377,6.54279318 35.2467346,6 34.5353657,6 L21.4655302,6 C20.7541614,6 20.2479606,6.54279318 19.9137785,7.38603809 C19.8904843,7.44199615 9,35.9530579 9,35.9530579 L9,35.9534884 Z"/></svg>