
<svg width="56px" height="56px" viewBox="0 0 56 56" version="1.1" xmlns="http://www.w3.org/2000/svg" xmlns:xlink="http://www.w3.org/1999/xlink">
    <defs>
        <linearGradient x1="13.075929%" y1="11.8156867%" x2="77.8081842%" y2="77.203428%" id="linearGradient-je-wt_hwg5-1">
            <stop stop-color="#FFE000" offset="0%"></stop>
            <stop stop-color="#BF3FF5" offset="100%"></stop>
        </linearGradient>
        <linearGradient x1="53.0527669%" y1="99.8844584%" x2="41.0975931%" y2="-3.39026951%" id="linearGradient-je-wt_hwg5-2">
            <stop stop-color="#BF3FF5" offset="0%"></stop>
            <stop stop-color="#6865EA" offset="24%"></stop>
            <stop stop-color="#0191DE" offset="52%"></stop>
            <stop stop-color="#28A3E3" offset="67%"></stop>
            <stop stop-color="#81CBEF" offset="98%"></stop>
        </linearGradient>
    </defs>
    <g id="Layout" stroke="none" stroke-width="1" fill="none" fill-rule="evenodd">
        <g id="blubolt" fill-rule="nonzero">
            <path d="M25.2032,27.9744 C27.2542,27.9744 29.2212,28.7904 30.6716,30.243 C32.1219,31.6956 32.9366,33.6657 32.9366,35.7199 C32.9366,37.7741 32.1219,39.7442 30.6716,41.1968 C29.2212,42.6494 27.2542,43.4654 25.2032,43.4654 C28.4262,43.4654 31.5173,42.1831 33.7963,39.9005 C36.0754,37.6179 37.3557,34.522 37.3557,31.2939 C37.3557,29.0577 36.7403,26.8648 35.5774,24.9558 C34.4146,23.0468 32.7492,21.4956 30.7639,20.4723 C28.9819,19.8219 27.0998,19.4898 25.2032,19.4911815 C22.5016,19.4871 19.8423,20.1631 17.46973,21.4571 L17.46973,35.7199 C17.46973,33.6657 18.2845,31.6956 19.7348,30.243 C21.1851,28.7904 23.1521,27.9744 25.2032,27.9744 Z" id="Path" fill="url(#linearGradient-je-wt_hwg5-1)"></path>
            <path d="M30.7639,20.4722 C32.7492,21.4954 34.4146,23.0466 35.5774,24.9556 C36.7403,26.8646 37.3556,29.0575 37.3557,31.2937 C37.3557,34.5218 36.0754,37.6177 33.7963,39.9003 C31.5173,42.1829 28.4262,43.4653 25.2032,43.4653 C23.1521,43.4653 21.1851,42.6492 19.7348,41.1966 C18.2845,39.7441 17.46973,37.774 17.46973,35.7197 C17.46973,38.9478 18.75008,42.0437 21.0291,44.3263 C23.3082,46.6089 26.3992,47.8913 29.6223,47.8913 C31.8536,47.8913 34.0418,47.2756 35.9471,46.1124 C37.8523,44.9491 39.401,43.2829 40.4233,41.2965 C41.0761,39.51 41.4089,37.6221 41.4066118,35.7197 C41.4075,32.392 40.387,29.1443 38.4833,26.4169 C36.5796,23.6895 33.8847,21.6142 30.7639,20.4722 Z" id="Path" fill="#00D0BB"></path>
            <path d="M29.7551,47.8912 C22.9939,47.9613 17.46997,42.2296 17.46997,35.4615 L17.46997,4 L9,4 L9,35.7197 C9,37.2164 9.207195,38.7058 9.614987,40.1457 C10.57684,43.5441 12.61948,46.5354 15.43283,48.6655 C18.24619,50.7956 21.6766,51.9484004 25.2034,51.9484004 C28.5245,51.9491 31.7656,50.9277 34.4879,49.0224 C37.2103,47.1172 39.2823,44.4202 40.4236,41.2964 C39.4116,43.263 37.8837,44.9161 36.004,46.078 C34.1242,47.24 31.9639,47.8668 29.7551,47.8912 Z" id="Path" fill="url(#linearGradient-je-wt_hwg5-2)"></path>
            <path d="M46.629,43.1482 C47.2084,43.1356 47.7841,43.2435 48.3197,43.4651 C48.8553,43.6866 49.3392,44.017 49.7408,44.4354 C50.1512,44.8465 50.4743,45.3365 50.6907,45.8759 C50.9072,46.4153 51.0125,46.993 51.0003,47.5742 C51.0177,48.1599 50.9149,48.743 50.6983,49.2873 C50.4817,49.8317 50.1558,50.3257 49.7408,50.7388 C49.3358,51.1509 48.8506,51.4754 48.3154,51.6924 C47.7802,51.9094 47.2063,52.0141 46.629,52.0002 C46.0367,52.0203 45.4466,51.9188 44.895,51.7019 C44.3433,51.4849 43.8419,51.1572 43.4215,50.7388 C43.0066,50.3257 42.6807,49.8317 42.464,49.2873 C42.2474,48.743 42.1446,48.1599 42.1621,47.5742 C42.1499,46.993 42.2552,46.4153 42.4716,45.8759 C42.6881,45.3365 43.0112,44.8465 43.4215,44.4354 C43.8384,44.0106 44.3386,43.6769 44.8907,43.4553 C45.4427,43.2338 46.0346,43.1292 46.629,43.1482 Z" id="Path" fill="#0191DE"></path>
        </g>
    </g>
</svg>