<svg xmlns="http://www.w3.org/2000/svg" width="56" height="56" viewBox="0 0 56 56"><path  fill-rule="evenodd" d="M28,3 C41.8114063,3 53,14.2078125 53,28.0045312 C53,41.8022656 41.8103906,53 28,53 L25.9721094,53 L25.9721094,52.9097656 C13.1186719,51.8767969 3,41.11125 3,27.9954688 C3,14.1977344 14.1896094,3 28,3 Z M36.2416863,29.9062434 L35.9634191,30.0105593 C28.6970928,32.804218 22.3785727,38.8979281 20.0288607,47.3631702 C22.4867819,48.3771524 25.1785449,48.9359375 28,48.9359375 L28.6217969,48.9359375 C30.3137555,48.8866099 31.9553136,48.6366031 33.5235327,48.2089284 C36.5906425,42.6976079 37.515546,36.0808597 36.2416863,29.9062434 Z M40.2077191,28.7778262 L40.1506794,28.7893472 C41.3683276,34.4099961 40.9990593,40.3663128 39.0556628,45.7927138 C44.8208716,42.2026786 48.7136961,35.8882467 48.9343968,28.6543599 C46.0863229,28.1377118 43.1191967,28.1970196 40.2077191,28.7778262 Z M8.37086385,20.6758358 L8.36580291,20.6910008 C7.51868451,22.9655648 7.05572656,25.4267361 7.05572656,27.9954688 C7.05572656,35.255364 10.7573649,41.6563863 16.3752148,45.4134845 C19.331381,35.8723717 26.6895304,29.0363327 35.1149685,26.0009079 L35.2464844,26.3592969 C34.6648799,24.7026674 33.9142807,23.1096619 33.008411,21.6039638 C31.1213302,22.3777518 29.1537935,22.9572374 27.1384375,23.3210937 C23.5965625,23.9596875 19.9580469,23.98125 16.4063281,23.3300781 C13.6179753,22.8330849 10.9065637,21.93933 8.37086385,20.6758358 Z M43.7284648,14.1737827 L43.6323182,14.2790737 C41.5974586,16.4552046 39.238739,18.323762 36.6597559,19.8130839 C37.6053363,21.4235907 38.3980207,23.1208062 39.0260192,24.8826293 C42.2134896,24.2016158 45.477498,24.056628 48.6515176,24.5022734 C47.9924826,20.5840403 46.2439533,17.033562 43.7284648,14.1737827 Z M10.2536705,16.8706037 L10.1535672,17.0334592 C12.3487863,18.1304401 14.7010992,18.9076712 17.1228906,19.3388281 L17.1335156,19.3407812 C20.1875,19.90125 23.3353906,19.8863281 26.4177344,19.330625 C27.8316722,19.0753387 29.2199453,18.695975 30.5668542,18.2032246 C29.3019374,16.7047857 27.8794213,15.3457483 26.3232031,14.1555469 C26.2165625,14.0816406 26.0984375,13.9939063 26.001875,13.9216406 C25.92875,13.8669531 25.8428125,13.8021094 25.7580469,13.738125 C25.7010938,13.6951563 25.6447656,13.6526563 25.5932031,13.6139063 C25.4539844,13.5092188 25.3275,13.4150781 25.2227344,13.3400781 C25.1480469,13.2865781 25.1082594,13.2600781 25.0954519,13.2514181 L25.0309375,13.214375 L24.9605469,13.1666406 C24.8569531,13.0963281 24.7646875,13.0325 24.6801563,12.9739844 C24.4945313,12.8455469 24.3458594,12.7426563 24.195,12.653125 L24.09625,12.5944531 L24.0046875,12.5250781 C23.986875,12.51375 23.9451563,12.4860156 23.8670313,12.4375 C23.7640625,12.3736719 23.6378125,12.2982813 23.5028906,12.2192188 C23.3114844,12.1071875 23.1371875,12.0077344 22.9992969,11.9290625 C22.935,11.8923438 22.8785938,11.8601563 22.8321094,11.8333594 C22.8207813,11.8270313 22.8103125,11.8211719 22.7945313,11.8125 C22.7896875,11.8098438 22.784375,11.8069531 22.77875,11.8038281 C22.7474219,11.7866406 22.705625,11.7635938 22.6630469,11.7399219 C22.6132031,11.7121875 22.5527344,11.678125 22.4939063,11.6436719 L22.398559,11.586467 C22.3785243,11.5740799 22.3569271,11.5604688 22.3345313,11.5459375 C22.2519531,11.4967188 22.1633594,11.4491406 22.0578906,11.3925 C21.9270313,11.3302344 21.77,11.2553906 21.6033594,11.1758594 C21.2897656,11.0263281 20.9417969,10.8604688 20.7003125,10.7481563 L20.6742969,10.7360625 L20.5651563,10.6815078 C20.1822656,10.5039922 19.7238281,10.3302109 19.2103906,10.1355391 C19.09875,10.0932188 18.9845313,10.0499141 18.8678906,10.0053672 C18.5514063,9.89177344 18.2227344,9.78835156 17.8784375,9.68 L17.8543101,9.67220525 C14.7533682,11.3926062 12.1351431,13.8770179 10.2536705,16.8706037 Z M28,7.05499219 C26.4307053,7.05499219 24.9017862,7.22759453 23.4311628,7.55482289 L23.3917969,7.53607031 C23.5703906,7.62121094 23.7289063,7.69675781 23.8334375,7.74610156 L23.8817969,7.76894531 L23.9289063,7.79430469 C23.9398438,7.80021094 23.9527344,7.80708594 23.9672656,7.81485938 C24.076875,7.8735625 24.2813281,7.98295313 24.4775,8.10282031 L24.5313281,8.13570313 L24.5465625,8.14636719 C24.5686719,8.15924219 24.5989844,8.17644531 24.6364844,8.19729688 C24.6692188,8.21553125 24.7007031,8.23286719 24.7321875,8.2501875 L24.7507031,8.26039844 C24.7680469,8.26994531 24.7878125,8.2808125 24.8054688,8.2906875 C24.8157031,8.29639063 24.8386719,8.30917969 24.8651563,8.32464844 C24.8890625,8.33841406 24.9259375,8.35942969 24.9720313,8.38575781 C25.1130469,8.46623438 25.3409375,8.59628125 25.5525,8.72017969 C25.7704688,8.8478125 26.103125,9.04440625 26.3492969,9.21696875 C26.6130469,9.37892969 26.9029688,9.57975781 27.0960156,9.71346875 C27.1307813,9.7375625 27.1624219,9.75947656 27.1901563,9.77859375 C27.3385938,9.86896875 27.4839063,9.97145313 27.585,10.0439141 C27.7296875,10.1475859 27.8871875,10.2650313 28.0307813,10.3730078 C28.0971875,10.4228906 28.1578125,10.4686563 28.2150781,10.5119141 C28.2913281,10.5694453 28.3616406,10.6225313 28.4317188,10.6749609 C28.4895313,10.7182578 28.5377344,10.7539375 28.5766406,10.7822031 C28.5958594,10.7961719 28.6108594,10.8068984 28.6221094,10.8148438 C28.6317188,10.8216406 28.63625,10.8246875 28.6364844,10.8248438 L28.6892969,10.8600781 L28.7402344,10.8988281 C30.8469626,12.5036567 32.7366135,14.372633 34.3700276,16.4484837 C36.746393,15.1143357 38.9165818,13.4069009 40.7698886,11.4020038 C37.2360073,8.67637675 32.8073051,7.05499219 28,7.05499219 Z"/></svg>