<svg xmlns="http://www.w3.org/2000/svg" width="48" height="48" viewBox="0 0 48 48"><defs><path id="a" d="M0 0h48v48H0V0Z"/></defs><path fill-rule="nonzero" d="M15.478 33.9V14.1h4.831v8.665c.98-.437 1.888-.985 2.726-1.643a14.617 14.617 0 0 0 2.226-2.157c.647-.78 1.19-1.585 1.627-2.416.438-.83.756-1.647.956-2.449h5.577c-.24.925-.634 1.864-1.182 2.815-.547.951-1.2 1.862-1.958 2.731a17.65 17.65 0 0 1-2.444 2.323 13 13 0 0 1-2.635 1.62v.445c.908-.003 1.718.097 2.43.298a5.547 5.547 0 0 1 1.891.934 6.228 6.228 0 0 1 1.434 1.576c.407.63.77 1.381 1.087 2.255L33.75 33.9h-5.488l-1.11-3.941c-.24-.877-.563-1.569-.97-2.078a3.46 3.46 0 0 0-1.598-1.106c-.657-.23-1.502-.344-2.537-.344H20.31V33.9h-4.83Z"/></svg>