<svg xmlns="http://www.w3.org/2000/svg" width="40" height="40" viewBox="0 0 40 40"><path fill="#042F2E" fill-rule="evenodd" d="M8.90503734,23 C11.7503739,23 14.3815859,24.5112901 15.8152685,26.9690318 L24,41 L15.3144755,55.8894705 C14.1908987,57.8156022 12.1288183,59 9.89892863,59 L-3.89892863,59 C-6.12881832,59 -8.19089872,57.8156022 -9.31447552,55.8894705 L-16.1572097,44.159069 C-17.2959452,42.2069511 -17.2959452,39.7930489 -16.1572097,37.840931 L-9.31447552,26.1105295 C-8.19089872,24.1843978 -6.12881832,23 -3.89892863,23 L8.90503734,23 Z M56.6005677,-4 C59.324826,-4 61.8440716,-2.55302007 63.2167465,-0.199863174 L72.7486614,16.1405624 C74.1398556,18.5254667 74.1398556,21.4745333 72.7486614,23.8594376 L63.2167465,40.1998632 C61.8440716,42.5530201 59.324826,44 56.6005677,44 L37.3994323,44 C34.675174,44 32.1559284,42.5530201 30.7832535,40.1998632 L19,20 L30.7832535,-0.199863174 C32.1559284,-2.55302007 34.675174,-4 37.3994323,-4 L56.6005677,-4 Z M9.89892863,-19 C12.1288183,-19 14.1908987,-17.8156022 15.3144755,-15.8894705 L24,-1 L15.8152685,13.0309682 C14.3815859,15.4887099 11.7503739,17 8.90503734,17 L-3.89892863,17 C-6.12881832,17 -8.19089872,15.8156022 -9.31447552,13.8894705 L-16.1572097,2.15906902 C-17.2959452,0.206951084 -17.2959452,-2.20695108 -16.1572097,-4.15906902 L-9.31447552,-15.8894705 C-8.19089872,-17.8156022 -6.12881832,-19 -3.89892863,-19 L9.89892863,-19 Z"/></svg>