<svg xmlns="http://www.w3.org/2000/svg" width="40" height="40" viewBox="0 0 40 40"><path  fill-rule="evenodd" d="M34.9071429,0 C37.7198502,-8.8817842e-16 40,2.28014981 40,5.09285714 L40,34.9071429 C40,37.7198502 37.7198502,40 34.9071429,40 L31.4550957,40 C30.4326877,40 29.48067,39.4793066 28.929101,38.6184409 L17,20 L28.929101,1.38155912 C29.48067,0.520693406 30.4326877,8.8817842e-16 31.4550957,4.4408921e-16 L34.9071429,0 Z M8.76983023,22 C11.6873601,22 14.3735452,23.5882639 15.7795575,26.14465 L22.177417,37.7771219 C22.2992241,37.9985893 22.3630932,38.2472455 22.3630932,38.5 C22.3630932,39.3284271 21.6915203,40 20.8630932,40 L6,40 C2.6862915,40 -1.0658141e-14,37.3137085 -1.0658141e-14,34 L-1.0658141e-14,22 Z M20.8630932,1.33226763e-15 C21.6915203,1.11022302e-15 22.3630932,0.671572875 22.3630932,1.5 C22.3630932,1.75275445 22.2992241,2.00141065 22.177417,2.22287812 L15.7795575,13.85535 C14.3735452,16.4117361 11.6873601,18 8.76983023,18 L-1.0658141e-14,18 L-1.0658141e-14,6 C-1.0658141e-14,2.6862915 2.6862915,-1.77635684e-15 6,-1.77635684e-15 L20.8630932,1.33226763e-15 Z"/></svg>