<svg xmlns="http://www.w3.org/2000/svg" width="40" height="40" viewBox="0 0 40 40"><g fill="none" fill-rule="evenodd"><path fill="#042F2E" d="M20,40 L20,60 L19.6555106,59.9970929 C8.76872859,59.813225 0,50.9306357 0,40 L20,40 Z" transform="matrix(0 1 1 0 -20 20)"/><path fill="#042F2E" d="M0,0 C9.9411255,-3.55271368e-15 18,8.0588745 18,18 L18,40 L18,40 C8.0588745,40 0,31.9411255 0,22 L0,0 L0,0 Z"/><path fill="#042F2E" d="M20,-1.98951966e-13 L20,20 L19.6555106,19.9970929 C8.76872859,19.813225 3.73034936e-13,10.9306357 3.73034936e-13,-1.98951966e-13 L20,-1.98951966e-13 Z" transform="rotate(-90 20 0)"/></g></svg>