<svg height="56" viewBox="0 0 56 56" width="56" xmlns="http://www.w3.org/2000/svg" xmlns:xlink="http://www.w3.org/1999/xlink"><linearGradient id="a" x1="50%" x2="50%" y1="0%" y2="100%"><stop offset="0" stop-color="#6364ff"/><stop offset="1" stop-color="#563acc"/></linearGradient><g fill="none" transform="translate(6 4)"><path d="m44.8184342 10.6267095c-.6931627-5.15735482-5.1834855-9.22173793-10.5065141-10.00930824-.8980767-.13307842-4.3007046-.61740126-12.1827904-.61740126h-.0588764c-7.884271 0-9.5757216.48432284-10.4737983.61740126-5.17480584.76575158-9.90057941 4.41780879-11.04714646 9.63624514-.55148455 2.5700039-.6103389 5.4191977-.50788896 8.032827.14604526 3.7480085.17438239 7.4895158.51442788 11.2222738.2350805 2.4795331.64518155 4.9392587 1.22721368 7.3608273 1.08989219 4.4723829 5.5017638 8.1942649 9.82425866 9.712644 4.6278628 1.5835133 9.6047956 1.8464195 14.3734761.7592504.5246064-.1221873 1.0426576-.2639999 1.5542141-.4254378 1.1596212-.3686885 2.5176011-.781063 3.5159497-1.5053159.0137175-.0102076.0249465-.0233316.0328372-.0383999.0079513-.0151292.0123822-.031838.0129285-.0489114v-3.6171327c-.0002428-.015919-.004006-.0315949-.0111076-.0458734s-.017238-.0267949-.0298024-.0366379c-.0125643-.0098431-.0271316-.0167089-.0426701-.0201722s-.031684-.0034025-.0471618.0001823c-3.0552574.7303896-6.186083 1.0965869-9.3272877 1.0908147-5.4058804 0-6.8597619-2.5678166-7.2761451-3.6368187-.334624-.9239085-.5471251-1.8876144-.6321013-2.8666317-.0009105-.0164658.0021244-.0328709.0088011-.0479392.006616-.0150684.0167524-.028314.0294989-.0387038.0127464-.0104507.0277386-.017681.0438234-.0212051.0160848-.003524.0327158-.0032202.0486792.0009114 3.0043324.7254681 6.0841115 1.0916654 9.1746948 1.0908147.7432987 0 1.4844122 0 2.2277109-.0196253 3.1083676-.0872506 6.384563-.2465011 9.4427946-.8442528.0762965-.0153114.1525929-.0283747.2179639-.048 4.8238543-.9272502 9.4145097-3.8375072 9.8809681-11.2070839.0174201-.2901265.0610615-3.0390063.0610615-3.3400695.0021244-1.0231894.3291005-7.2583261-.0480116-11.0892713z" fill="url(#a)"/><path d="m37.1761049 16.4210362v12.8127744h-5.0723512v-12.4353366c0-2.6179432-1.0898801-3.9531325-3.3067262-3.9531325-2.4369951 0-3.6576171 1.5795031-3.6576171 4.6992588v6.8067009h-5.0418788v-6.8067009c0-3.1197557-1.2228071-4.6992588-3.6598022-4.6992588-2.2037962 0-3.3046018 1.3351893-3.3046018 3.9531325v12.4353366h-5.07016375v-12.8127744c0-2.6179432.66773059-4.6977398 2.00325245-6.2394506 1.3775851-1.53806515 3.184664-2.32781672 5.42761-2.32781672 2.5961433 0 4.5579395.99918945 5.8658442 2.99538102l1.2620781 2.1205662 1.2642633-2.1205662c1.307844-1.99619157 3.2696402-2.99538102 5.8614133-2.99538102 2.2408216 0 4.0478398.78975157 5.4298558 2.32781672 1.3340044 1.5402525 2.0002783 3.6200491 1.9988239 6.2394506z" fill="#fff"/></g></svg>