<svg xmlns="http://www.w3.org/2000/svg" width="32" height="32" viewBox="0 0 32 32"><path d="M13.1604021,9.21252426 C13.0545923,9.79303686 13,10.3901431 13,11 C13,16.1716482 16.9258503,20.426365 21.9599701,20.9465693 C20.5852832,23.3669712 17.9833487,25 15,25 C10.581722,25 7,21.418278 7,17 C7,13.2147876 9.62885298,10.0435768 13.1604021,9.21252426 Z M12.006,10.6695243 L11.9757486,10.6840753 C9.59876911,11.8226687 8,14.2502322 8,17 C8,20.8659932 11.1340068,24 15,24 C17.0019187,24 18.8551598,23.1529942 20.1567562,21.7348523 L20.232,21.6485243 L20.1709196,21.6330387 C15.5301204,20.4033296 12.1327521,16.2298348 12.0038003,11.2913642 L12,11 L12.006,10.6695243 Z M21.5,13 C21.7761424,13 22,13.2238576 22,13.5 L22,15 L23.5,15 C23.7761424,15 24,15.2238576 24,15.5 C24,15.7761424 23.7761424,16 23.5,16 L22,16 L22,17.5 C22,17.7761424 21.7761424,18 21.5,18 C21.2238576,18 21,17.7761424 21,17.5 L21,16 L19.5,16 C19.2238576,16 19,15.7761424 19,15.5 C19,15.2238576 19.2238576,15 19.5,15 L21,15 L21,13.5 C21,13.2238576 21.2238576,13 21.5,13 Z M17.5,8 C17.7761424,8 18,8.22385763 18,8.5 L18,10 L19.5,10 C19.7761424,10 20,10.2238576 20,10.5 C20,10.7761424 19.7761424,11 19.5,11 L18,11 L18,12.5 C18,12.7761424 17.7761424,13 17.5,13 C17.2238576,13 17,12.7761424 17,12.5 L17,11 L15.5,11 C15.2238576,11 15,10.7761424 15,10.5 C15,10.2238576 15.2238576,10 15.5,10 L17,10 L17,8.5 C17,8.22385763 17.2238576,8 17.5,8 Z"/></svg>