<svg xmlns="http://www.w3.org/2000/svg" width="28" height="28" viewBox="0 0 28 28"><path  d="M13.2340443,4.02976104 C12.4557493,5.15792573 12,6.52573989 12,8 C12,11.8659932 15.1340068,15 19,15 C20.9309956,15 22.6793732,14.2181196 23.9458119,12.9536799 C23.9816837,13.2977799 24,13.6467509 24,14 C24,19.5228475 19.5228475,24 14,24 C8.4771525,24 4,19.5228475 4,14 C4,8.75797526 8.03342437,4.45800725 13.1660937,4.03427544 L13.2340443,4.02976104 Z M10.052,7.03924091 L9.86546952,7.1487061 C7.54236597,8.55423514 6,11.1068438 6,14 C6,18.418278 9.581722,22 14,22 C17.4179132,22 20.3352031,19.8565772 21.4810249,16.8405765 L21.557,16.6292409 L21.4481587,16.6624236 C20.7606024,16.8563454 20.0450711,16.969361 19.314155,16.9945848 L19,17 C14.0294373,17 10,12.9705627 10,8 C10,7.7690909 10.0087484,7.53940924 10.0260657,7.31134603 L10.052,7.03924091 Z"/></svg>