<svg xmlns="http://www.w3.org/2000/svg" width="56" height="56" viewBox="0 0 56 56"><path d="M28.113224,6.00637258 L41.2931688,7.49470023 C41.5713434,7.52611285 41.8240065,7.67168084 41.9908392,7.89665276 L51.8010798,21.1256401 C52.0814112,21.5036633 52.0638106,22.0253286 51.7586385,22.3835665 L28.3842265,49.8225124 C28.203316,50.034881 27.884635,50.060268 27.6724327,49.8792159 C27.652075,49.8618468 27.6331291,49.8428859 27.6157734,49.8225124 L4.24136153,22.3835665 C3.93618939,22.0253286 3.91858886,21.5036633 4.19892019,21.1256401 L14.0091607,7.89665276 C14.1759935,7.67168084 14.4286565,7.52611285 14.7068312,7.49470023 L27.8867759,6.00637258 C27.9620199,5.99787581 28.0379801,5.99787581 28.113224,6.00637258 Z M30.8492387,8.86046202 C30.7720028,8.78274798 30.6486267,8.77586895 30.5632431,8.84451592 C30.479409,8.91191685 30.4596384,9.02954715 30.5123963,9.11971592 L30.5304079,9.14586499 L37.9628645,18.4049137 C38.0348895,18.4946397 38.0741497,18.6062845 38.0741497,18.7213779 C38.0741497,18.9864948 37.8701357,19.2039246 37.6106534,19.2250046 L37.5692433,19.2266797 L18.4307567,19.2266797 C18.3157533,19.2266797 18.2041958,19.1873889 18.1145402,19.1153074 C17.9092266,18.9502389 17.8669086,18.6573721 18.009962,18.4420627 L18.0371355,18.4049137 L25.4695921,9.14586499 C25.5381853,9.06041448 25.5313116,8.93694174 25.4536585,8.85964543 C25.3774148,8.783752 25.2584078,8.7771547 25.1747274,8.83964308 L25.1507613,8.86046202 L15.0819488,18.9915991 C15.0014525,19.0725936 14.8904717,19.1157217 14.7764525,19.1103171 C14.5667283,19.1003762 14.4019563,18.9320672 14.392096,18.7263786 L14.3920894,18.6874035 L14.7393865,11.3490191 C14.7440218,11.2510757 14.6777459,11.1639299 14.5821806,11.1423103 C14.4824511,11.1197486 14.3832784,11.1752703 14.3484989,11.2685467 L14.3406581,11.2948915 L12.4328477,19.7412174 C12.3675858,20.0301467 12.150219,20.258687 11.8685634,20.3398377 L11.8150211,20.3533049 L7.09129562,21.3717974 C6.99828065,21.3918526 6.9318686,21.4741609 6.9318686,21.5693845 C6.9318686,21.6717104 7.00784799,21.7562763 7.10642601,21.7696601 L7.13383113,21.7715053 L11.8458947,21.7715053 C12.1198984,21.7715053 12.37387,21.9103617 12.5223105,22.1379488 L12.5505662,22.1846345 L23.8542708,42.3637317 C23.9319843,42.502464 24.1036083,42.5575143 24.2474252,42.4898404 C24.3887409,42.4233436 24.4548105,42.2615922 24.4051109,42.1171229 L24.3926742,42.0864707 L15.2544115,22.6358745 C15.2164892,22.5551574 15.1968271,22.4670615 15.1968271,22.3778675 C15.1968271,22.0575431 15.4450167,21.7952319 15.7594448,21.7730277 L15.8027147,21.7715053 L40.1972853,21.7715053 C40.2864097,21.7715053 40.3744365,21.7911828 40.4550904,21.8291348 C40.7447437,21.9654329 40.876334,22.3018234 40.7626232,22.5960384 L40.7455885,22.6358745 L31.6073258,42.0864707 C31.5397049,42.2304002 31.5947122,42.4021587 31.7333358,42.4799329 C31.8695485,42.5563547 32.0394668,42.5161299 32.1280369,42.3916776 L32.1457292,42.3637317 L43.4494337,22.1846345 C43.5834235,21.9454394 43.8286443,21.7916332 44.099597,21.7733419 L44.1541053,21.7715053 L48.8661688,21.7715053 C48.961318,21.7715053 49.0435619,21.7050412 49.0636014,21.6119534 C49.0851354,21.5119226 49.0286568,21.4132388 48.9351065,21.3793774 L48.9087043,21.3717974 L44.1849789,20.3533049 C43.8956303,20.290918 43.6650819,20.0757036 43.58115,19.7946627 L43.5671524,19.7412174 L41.659342,11.2948915 C41.6377392,11.1992514 41.5506617,11.1329234 41.4527949,11.1375624 C41.3506636,11.1424033 41.269853,11.222358 41.2611585,11.321536 L41.2606134,11.3490191 L41.6079105,18.6874035 C41.6133109,18.801512 41.5702166,18.9125797 41.4892855,18.9931391 C41.3410039,19.1407394 41.1069558,19.1493584 40.9486538,19.0194316 L40.9180512,18.9915991 L30.8492387,8.86046202 Z"/></svg>