<svg xmlns="http://www.w3.org/2000/svg" width="56" height="56" viewBox="0 0 56 56"><defs><linearGradient id="a" x1="12.451%" x2="82.462%" y1="20.382%" y2="55.313%"><stop offset="0%" stop-color="#E20720"/><stop offset="33%" stop-color="#D20F81"/><stop offset="72%" stop-color="#383088"/><stop offset="100%" stop-color="#1493D2"/></linearGradient><linearGradient id="b" x1="12.593%" x2="86.851%" y1="25.708%" y2="75.736%"><stop offset="0%" stop-color="#EF7D06"/><stop offset="54%" stop-color="#E31113"/><stop offset="100%" stop-color="#E50766"/></linearGradient><linearGradient id="c" x1="44.794%" x2="55.342%" y1="35.426%" y2="65.182%"><stop offset="0%" stop-color="#EF7D06"/><stop offset="54%" stop-color="#E31113"/><stop offset="100%" stop-color="#E50766"/></linearGradient></defs><g fill="none" transform="translate(-9)"><path fill="url(#a)" d="M50.2778991,44.9848479 C49.4825798,45.0095402 48.6872605,44.8860789 47.9292217,44.6144642 C47.630977,44.5156952 47.5564158,44.40458 47.7055382,44.0959269 C49.1222007,41.157549 50.5140096,38.219171 51.9306721,35.2807931 C52.0797945,35.0338706 52.0797945,34.7252174 51.9306721,34.4906411 C49.5819947,30.848534 47.2457442,27.2064269 44.9094936,23.5519736 C44.7603713,23.3173973 44.6485295,23.292705 44.4496996,23.490243 C43.0951714,24.9347397 41.7282163,26.3668903 40.3612612,27.7866948 C40.1748582,27.9842328 40.2618463,28.107694 40.3612612,28.2681937 L43.7910758,33.3918359 L46.4255711,37.3549422 C46.5374129,37.527788 46.6368278,37.6759415 46.3510099,37.7747105 C44.6112489,38.4660935 42.672658,38.4414013 40.9453238,37.7129799 C40.1748582,37.3425961 39.5410881,36.7499821 39.093721,36.0215606 C37.35396,33.3177591 35.6390527,30.6139576 33.8868648,27.9225022 C33.6756081,27.712618 33.6880349,27.3792726 33.8992916,27.1693885 C33.9117185,27.1570424 33.9365722,27.1446962 33.9489991,27.1323501 C36.1485541,24.7865862 38.3356823,22.4161301 40.4979567,20.0456739 C42.4614013,17.8974481 44.8597862,17.4406414 47.5936964,18.0579477 C47.8298068,18.1196783 48.0286366,18.280178 48.1280516,18.4900621 L54.0183854,28.008925 C54.1923615,28.2805398 54.3414838,28.5521546 54.5278868,28.7990771 C54.5775943,28.8731538 54.602448,29.0213074 54.7142898,29.0089612 C54.8261316,28.9966151 54.8634121,28.8484616 54.9006927,28.7496926 L56.6031732,24.7865862 C57.1375284,23.4655508 57.6967373,22.1445153 58.2932268,20.8234799 C59.3992177,18.280178 61.4372235,17.5270643 63.9971576,18.1196783 C64.1959874,18.1690628 64.3823904,18.2431396 64.5812202,18.2925241 C65.0658679,18.4406776 65.0907217,18.4530237 64.8546113,18.9098304 C62.7917517,23.095167 60.9898564,27.4039649 59.0388386,31.6139938 C57.4357731,35.1573318 55.8451344,38.7624006 54.2420689,42.2687003 C53.9189704,43.1205829 53.3473347,43.8613505 52.6017228,44.3922339 C51.9182452,44.8613867 51.0980722,45.0589247 50.2778991,44.9848479 L50.2778991,44.9848479 Z"/><path fill="url(#b)" d="M17.0236096,38.2068249 C14.5630904,38.1697865 12.3759622,38.021633 10.2012609,37.8117489 C9.62962515,37.7500183 9.57991769,37.7129799 9.55506397,37.1574042 C9.48050278,36.4907134 9.51778337,35.8240226 9.65447888,35.169678 C9.89058931,33.8733348 11.0462877,32.9473753 12.3759622,32.9844137 C13.680783,32.9844137 14.9856038,33.107875 16.2779977,33.1696056 C17.346708,33.2683746 18.4154184,33.2560285 19.4717019,33.1325672 C19.7575198,33.0955288 20.0309108,32.9967598 20.2670212,32.8362602 C20.7392421,32.6016838 20.9380719,32.033762 20.7143883,31.5646093 C20.6149734,31.3670712 20.465851,31.2189177 20.2670212,31.1201487 C19.7575198,30.848534 19.1983109,30.6756882 18.6266751,30.6016114 C17.1851588,30.3053044 15.7187888,30.0583819 14.2772725,29.7620749 C12.6120726,29.5028063 11.1208489,28.6138852 10.0894191,27.2928497 C8.26267005,24.8236246 8.78459836,21.3420171 11.2699713,19.5271367 C11.3445325,19.465406 11.4315205,19.4160215 11.5185086,19.3542909 C12.7984756,18.5147543 14.2648456,18.0332554 15.79335,17.9468326 C18.7509437,17.7369484 21.7209644,17.8233713 24.6537044,18.2307935 C24.9519492,18.2307935 25.0513641,18.3912931 25.1010715,18.675254 C25.2253402,19.4036754 25.2004864,20.1567891 25.0265103,20.8728644 C24.7903999,22.1445153 23.6471284,23.0457825 22.3547345,22.9717057 C21.02506,22.9717057 19.7078123,22.8235522 18.3657109,22.79886 C17.533111,22.7494755 16.7005111,22.7741677 15.8679112,22.897629 C15.519959,22.9470135 15.1844336,23.0704747 14.873762,23.2680128 C14.4885292,23.4778969 14.3394068,23.9470497 14.5382367,24.3421257 C14.6127978,24.4902792 14.7246396,24.6013943 14.873762,24.6754711 C15.3211291,24.9100475 15.8057768,25.0705471 16.3152783,25.1322777 C18.0053319,25.4656231 19.732666,25.7001995 21.4102928,26.1199678 C22.8890896,26.4409671 24.231191,27.2434652 25.2004864,28.3916549 C27.0023818,30.5645731 26.89054,35.1820241 23.2867493,37.0215968 C21.9446479,37.6882876 20.4782779,38.0586714 18.9746273,38.1080559 C18.3284303,38.1821327 17.6698065,38.2068249 17.0236096,38.2068249 Z"/><path fill="url(#c)" d="M33.4519245,23.7001272 L33.4519245,35.5400617 C33.6134738,36.7499821 32.7560201,37.8611334 31.5381874,38.021633 C31.5257605,38.021633 31.5009068,38.021633 31.4884799,38.0339791 C30.4446233,38.2685555 29.3634861,38.31794 28.2947757,38.1944788 C28.1083728,38.2068249 27.9468235,38.0586714 27.9343966,37.8611334 L27.9343966,14.7121476 C27.9343966,14.3417638 27.9716772,13.9590339 28.0462384,13.5886502 C28.2326414,12.391076 29.1522294,11.4404243 30.3576352,11.2058479 C31.2150889,10.9959638 32.1098231,10.9465793 32.9921305,11.0576944 C33.3649365,11.1070789 33.4270708,11.2922708 33.4270708,11.6132701 L33.4270708,23.7124733 L33.4519245,23.7001272 L33.4519245,23.7001272 Z"/></g></svg>