<svg height="56" viewBox="0 0 56 56" width="56" xmlns="http://www.w3.org/2000/svg"><path d="m49.9387075 26.1253282c-.0183878.2707859-.0355497.5403466-.0625184.8074567-.0159361.1592858-.0392272.3161211-.057615.4729564-.0294204.2413793-.057615.4815333-.0931647.7192368-.0257428.1666375-.0563891.3320497-.0858095.4974619-.0392272.2266761-.0772286.4533521-.1225851.6775775-.0343238.169088-.073551.3357255-.1115524.5035883-.049034.2180991-.0980681.4349729-.1532314.6506214-.0429047.169088-.0907129.3357255-.1372952.5035883-.0588409.2107474-.1176817.4214948-.1826518.631017-.1149596.3734798-.2392177.7440367-.3726586 1.111325-.1931279.528774-.4036805 1.0510263-.6313132 1.5659024-.1587311.3529775-.3238393.7030552-.4952437 1.0500612-.098068.1948189-.1998136.3859619-.3015592.5771049-.0809062.1494836-.1605865.297742-.2439443.4460003-.1083704.1904745-.2191142.3795901-.3322056.5673027-.0858095.1421319-.1703932.2842639-.2586545.4251706-.1189075.1899178-.2427184.3761597-.3677552.5624016-.0894871.133555-.1765225.2683353-.2684613.3994398-.1323919.1911431-.270913.377385-.4094342.5648521-.0907129.1225276-.1777483.2450552-.270913.3663575-.1520055.1984946-.3101402.3908629-.4695008.5844565-.0845837.1041484-.1667157.2095221-.2525253.3124453-.1949102.2303518-.3971756.4545773-.599441.6788027-.0563891.0600385-.1078748.1237528-.164264.1837914-.2635579.2830386-.5320192.5599509-.8090615.8307369-.049034.049011-.1029714.0955715-.1532313.1445825-.2254819.2188324-.4551673.4332956-.6889281.6432697-.0992939.0894452-.2022654.1727639-.3015593.2597585-.1912327.1654122-.3812396.3308244-.5773757.4901103-.1189075.0967967-.2402668.1886924-.3604001.2830386-.1838776.1433573-.3665294.2867146-.5540846.426396-.131166.0967968-.2647837.1886924-.3971756.2830387l-.4155634.2903903c.0392272-.0281813.082132-.0514616.1225851-.0784176-.0465824.0318571-.0943905.0588132-.1409729.0906704-.0392272.026956-.0772286.0551374-.1164558.0808682-.1409728.0943462-.2831715.1850166-.4253702.275687-.2419836.1559636-.4867856.3075144-.7342846.4545773l-.0858095.049011c.0183877-.0098022.0380013-.0196044.0551632-.0306319l-.2562028.1482584c-.1814259.1053737-.3628518.2082968-.5467294.3087694l-.2414926.1274287c-.1409728.0747418-.2843974.1482584-.4278219.2205496l-.0747769.0367583c-.1103266.0551374-.2182014.1115001-.3297538.1654122-.1495538.071066-.2991076.142132-.4511131.2119727l-.1225851.0539121c-.1348436.0612638-.2696871.1213023-.4057566.1801156l-.0588408.0257308c-.1189075.0514615-.2402668.1004726-.3604001.1507089-.2093745.0866022-.4202533.1695253-.632539.2487309-.1434245.0539122-.2856232.106599-.4290478.1580606l-.1851034.0673902c-.1581348.0551374-.3187212.1078242-.4793077.1592858-.131166.0428846-.262332.0857693-.3947239.1262034l-.0527116.0159286c-.1421987.0441099-.2843974.0857693-.4278219.1262034l-.4094341.1151759c-.1752967.0465605-.3493675.0943462-.52589.1384561l-.0894871.0196044-.2206532.0539122c.0392273-.008577.0760028-.0208297.11523-.0294066l-.2549769.0575879c.0453564-.0110275.0931646-.0171538.1397469-.0281813-.1078748.0257308-.2169755.0453352-.3248504.0698407l-.0159361.0036758c-.1752966.0379836-.3493674.0784177-.5258899.1127254-.1826518.035533-.3665294.0661649-.550407.0967968-.1078749.0183791-.2145239.0416593-.3223988.0588132.0502599-.0085769.099294-.0208297.1495538-.0294066l-.2660096.0441099c.0392272-.0061264.0784545-.0085769.1164558-.0147033l-.1802.0257308-.1446504.0245055c-.2439443.035533-.4903403.0624891-.7367363.0918957-.1593606.0183791-.3187212.0416593-.4805335.0563627l-.0367755.0049011h-.0232912c-.0661959.0061263-.1348436.0085769-.2010395.0147033-.1520055.013478-.304011.0220549-.4560165.0330824-.5160831.0367583-1.0358438.0600385-1.560508.0649396-.0465823 0-.0907129.0061264-.1360694.0061264h-.1875552c-.0441306 0-.0858095-.0049011-.1299401-.0061264-.5366754-.0057661-1.0730409-.0282404-1.6083162-.0673901-.1458762-.0110275-.2929783-.0196045-.4388546-.0318572-.0588408-.0061264-.1189075-.0073517-.1789742-.013478h-.0220653c-.4366402-.0444354-.8719805-.1008193-1.305531-.1690881.0625184.0098022.1262626.0147033.188781.0232803-.1556831-.0232803-.3150437-.0367583-.4695009-.0612638l-.2206531-.0392089c.0588409.0098023.1164558.0257308.1752967.035533-.1054232-.0171538-.2083947-.0416593-.3138178-.0600385l-.0367755-.0061263c-.0649701-.0110275-.1274885-.0269561-.1912328-.0379836-.4151147-.0739921-.8283507-.158153-1.2393351-.2524068l.1176817.0232803-.1936844-.04411.0760027.0208297c-.1777483-.0416594-.3505933-.0943462-.5271158-.1409067l.0281946.0073517c-.0183878-.0036759-.0355497-.0098022-.0539374-.0147033l.0257428.0073516c-.3567225-.0918957-.7134451-.1837913-1.0640384-.2903903l-.0441306-.0122528c-.0478082-.0147033-.0943905-.0318572-.1421987-.0477857l-.0220653-.0073517c-.197362-.062489-.3910464-.1347803-.5871825-.2021705l.2549769.0869946c-.1348436-.0453352-.2684613-.093121-.402079-.1409067l.1471021.0539121c-.3003335-.1029231-.6006669-.2058463-.8948711-.3197969l-.1483279-.057588c-.0208395-.0085769-.0404531-.0183791-.0612926-.0257308-.2016766-.0812014-.4023234-.1649352-.6018927-.2511815.1311661.0563627.2635579.1090495.394724.1629617-.1949103-.0796429-.3885947-.164187-.5810533-.2475057.0625184.026956.1238109.0575879.1863293.084544-.2059429-.0882198-.4143375-.1739891-.6178287-.2683354l-.0441307-.0183791c-.0269687-.0122528-.0551633-.0232802-.082132-.0367583-.0968422-.0441099-.188781-.098022-.2843973-.1433572-.1961362-.0955715-.3922723-.1886925-.5859567-.2879398.1654898.084544.3346573.1629616.5025988.2450551-.240477-.117221-.4791375-.2381291-.7158968-.3626816.0723252.0379836.1409728.0796429.213298.1176265-.1630381-.084544-.3248504-.1678628-.4854369-.2548574l-.0588408-.0306319c-.0600667-.0318571-.1189076-.0673901-.1777484-.1004726-.0772286-.0416593-.1495538-.0894451-.2255565-.133555l-.0649701-.0367583.033098.0183792c-.2660097-.1519342-.5283417-.306319-.7869962-.4668301.0772286.0477858.1507796.1016979.2292341.1494837-.1262627-.0759671-.2488477-.1568353-.3726587-.2340277l-.0110326-.0073517-.188781-.1188517c-.0956164-.0612638-.1863293-.1286539-.2807198-.191143-.2022654-.1335551-.4094342-.2597585-.608022-.3994399.1483279.1041485.3064627.1960441.4572423.2965167-.2647837-.1764397-.5320192-.3492035-.7894479-.5366707l.0539375.0404341c-.0183878-.0122528-.0355497-.0269561-.0539375-.0404341-.24026671-.1764397-.4744042-.3602311-.70854169-.5440224l-.01103266-.0085769c-.10542316-.0833188-.21084633-.1617364-.31381779-.2450552l-.04167892-.035533c-.28439737-.2328024-.56634304-.4705058-.83970776-.715561l-.02206531-.0183791-.01716191-.0159286c-.10051976-.0894451-.19368442-.1837914-.29175248-.275687-.19368442-.1788903-.38736883-.3577805-.574924-.5427972l-.02329116-.0220549-.04535648-.0428847.04535648.0428847c-.0772286-.0759671-.15077964-.15561-.22678239-.2328024.06129254.0624891.11890752.1286539.18142591.1899177-.06251839-.062489-.12135922-.1286539-.18387761-.1923683l-.10051976-.1053737c-.17039325-.1764397-.34201236-.3504288-.50750221-.5317696-.09684221-.106599-.18878101-.2119727-.28071982-.3161211l-.07109934-.0820935c-.2496243-.2848184-.49321409-.5748647-.73060704-.8699457-.02451702-.0294067-.04780818-.0612638-.07109934-.0918957-.23060122-.2889246-.4545815-.5830672-.67176621-.8821985-.02696872-.0379836-.05148573-.0771924-.07845445-.1139507-.13776593-.1938874-.27302934-.3895393-.40575659-.586907-.06742179-.1004726-.13729528-.2009452-.20349122-.3038684-.03064627-.0465605-.05761499-.0943462-.08703541-.1409067-.12480025-.1949708-.24658259-.3918552-.36530352-.5905829-.01471021-.026956-.03187212-.0526868-.04780818-.0784176-.04535647-.0747418-.0919388-.1482584-.13606943-.2242255-.03309797-.0563626-.06251839-.1151759-.09439051-.1727638-.11483226-.20345-.2268043-.4084996-.3358831-.6150884-.05271158-.0967968-.10787486-.191143-.15813474-.2891651-.03187212-.0612638-.06006669-.1237528-.09071296-.1850166-.10864841-.2169631-.21327223-.4359165-.31381779-.6567478-.04045307-.084544-.08335785-.169088-.12258507-.2548573l-.06374424-.1482584c-.11400412-.2548573-.22065313-.5133905-.32485045-.7731489l-.08580955-.2070716-.03554967-.0967968c-.12093398-.3131696-.23496565-.6289586-.34201236-.9471381l-.04167892-.1176265-.01225851-.0379835c-.303091-.9101828-.55116038-1.8377562-.74286555-2.7777l-.0098068-.049011c-.01961362-.0967968-.03309797-.1948189-.05148573-.2903904-.05399547-.2776506-.10303729-.5562408-.14710209-.835638l-.01838777-.1078243c-.01961361-.1372308-.03187211-.2769123-.04903402-.4153684-.0342012-.2510528-.06403474-.5026807-.08948711-.7547698-.0024517-.0245056-.0073551-.0490111-.00858095-.0747419-.00367756-.0330824-.00245171-.0673901-.00490341-.1016978-.06753692-.7221936-.102305-1.4470747-.10419731-2.1724138 0-.3148959.01225851-.6285665.02451701-.9410118-.0049034.142132-.01716191.2830387-.01961361.426396.0024517-.1433573.01471021-.284264.01961361-.426396.00735511-.1776649.01471021-.3553299.02451702-.5329949.00612925-.0918957.00612925-.1850166.01348436-.2769123-.00735511.0918957-.00735511.1850166-.01348436.2769123.01471021-.2364782.03432382-.4705059.05516328-.7045335-.01348436.142132-.03187212.284264-.04167892.4276212.0098068-.1445825.02942042-.2867145.04167892-.431297.01593606-.1764397.03187212-.3516542.05148573-.5268686.02696872-.2328024.05761499-.4656047.09071296-.6971818.02451701-.1739892.04903403-.3467531.0772286-.5182917.03800137-.2303518.08090614-.4582531.12503677-.6849291.03309797-.1727638.06619594-.3430772.10297146-.5121652v-.0012253c.04990507-.2253813.1030307-.4500382.1593606-.6739016.04045307-.1666375.082132-.3345003.12748848-.4999125v-.0024505c.06006668-.2205497.12381092-.4374235.19000686-.6542973.05025988-.169088.09929391-.3345002.15200549-.4962366.07109935-.2180991.14587624-.4300718.22187899-.6420445l.0024517-.0061264c.05761498-.1605111.11400412-.3210222.17529665-.480308.08090615-.213198.16548985-.4190443.25007356-.6248906l.00367755-.008577c.06497009-.1568352.12994018-.3148958.19736197-.4705058.09426862-.2090671.18866659-.4132959.28562322-.6163137.07232519-.1531594.14342454-.3075442.21942728-.4582531l.0024517-.0049011c.09806806-.1972694.20103952-.3908629.30523684-.5844565l.00612925-.0122528c.0796803-.1482583.15813475-.2989672.2414926-.4460003.10910071-.1948188.22187898-.382286.3334314-.5697532l.00858095-.013478c.08703541-.1445826.17284496-.2903904.26233206-.4337476l.00367755-.0049011c.11522997-.1837914.23536335-.3639069.35549672-.5440224l.00980681-.0159286c.0943905-.1396814.18632931-.2805882.28317152-.4190443l.00367755-.0061264c.12258507-.1764397.2512994-.3492036.37878788-.5231927l.01348436-.0171539c.10051976-.1360056.19858782-.27201116.30155928-.40556621.13484358-.17521443.27091301-.34062664.40698244-.50726414l.01471021-.01837913c.10664902-.1311045.21207218-.262209.3211729-.39086295.00125502-.00231862.00291575-.00439357.0049034-.00612637.13729528-.1617364.28071982-.32102223.4229185-.4790828l.01838777-.01960441c.11277826-.1262034.22310483-.25240679.3383348-.37615964l.00612925-.0049011c.14465039-.15561001.29543003-.30631892.44375797-.45702783l.02083946-.02082969c.11890753-.12007701.23536335-.24137931.35672257-.35900577.00198764-.0017328.00364838-.00380775.0049034-.00612638l.04413063-.04410993-.04167893.04288465c.13116603-.12742867.26723547-.24995624.4008532-.37493436-.11032657.10292316-.22433069.20217049-.3334314.30631893.12871432-.12375285.2635579-.24260459.39472393-.36390688l.02329117-.02082969c.12503677-.11517592.24762185-.23157711.37388447-.34307719l.00612926-.00490111.06497009-.0600385-.06497009.0600385c.13606943-.12130229.27826812-.2364782.4180151-.35532994-.11768167.09924733-.23781504.19359355-.35304501.29529144.13729528-.12007702.27949397-.23402766.4180151-.35042885.00874102-.00765017.01773562-.01500593.02696872-.02205496.12871432-.10782426.2562028-.21809908.38736883-.32347278l.00612925-.00490111.06374424-.05268685-.06251839.05146158c.14219869-.11395064.28807493-.22300018.43272531-.33327499-.12258507.09434623-.2488477.18501663-.37020692.28181341.14342454-.11517592.29297833-.22422545.44008042-.33572554l.02819456-.02205496c.13484359-.10169788.26600961-.20462104.40207904-.30386837l.0674218-.05023631-.0588408.04410993c.1483279-.10782426.2991075-.20952214.4486613-.31367058-.1287143.0906704-.262332.1764397-.3898205.26956065.1507796-.11027481.3076885-.21319797.4621457-.31857167l.0318721-.02205497c.1372953-.0955715.2733648-.19236828.4131117-.28426396l.0049034-.00367582.0600667-.0404341-.0539374.03675827c.1532313-.10047261.3113661-.19481883.4658233-.29284089-.1360694.0857693-.2770423.16786277-.4118859.25608262.1593606-.10414843.3223988-.20094521.4842111-.30141782l.0355496-.02082969c.1409729-.08821985.2807199-.17889025.4241444-.26343427.0236588-.01500827.0428772-.02686088.0625184-.03798355l-.049034.0306319c.1593606-.09434623.3223987-.18256608.484211-.27323648-.1446504.08086819-.2929783.15806056-.435177.24260458.1654898-.09802205.3371089-.18869245.5050505-.2818134l.0392272-.02205497c.1446504-.07964292.2868491-.16296166.4327253-.24137931.0018343-.00033432.0035353-.00118439.0049034-.00245055l.0551633-.02940661-.0441306.02450551c.1667157-.08821985.3383348-.17031332.5062763-.25485734-.1532313.07719236-.3101402.14948363-.4621457.23035183.1740708-.09189568.3518192-.17521443.5271158-.26343428.0146499-.0062024.0289705-.01315484.0429048-.02082968.1471021-.07229127.2917525-.14825836.4413063-.21809908l.0036775-.00245055.0527116-.02573079-.0380014.01960441c.1752967-.08209347.3542709-.15806056.5320193-.2364782-.164264.07351654-.3309797.1409067-.4940179.21687379.1814259-.08454402.3665294-.16051111.550407-.24137931l.0465823-.02082968c.148328-.06493962.2954301-.13355505.4462097-.19481884l.0036775-.00245055c.0165613-.0064223.0329143-.01336904.0490341-.02082969l-.0318721.01470331c.1863293-.07719237.3763361-.1458078.5651171-.21809907-.1777483.06739016-.3567225.13232977-.533245.20339576.188781-.07719236.3824654-.1458078.5736981-.21932434l.0527116-.01960442c.1495538-.05758795.2966559-.11762646.4486614-.17276387h.0024517c.0152466-.00645283.0307916-.01217725.0465823-.01715386l-.0269687.00980221c.2022654-.07229127.4094341-.1360056.6141512-.20339577-.1961361.06493962-.3934981.12497812-.5871825.19359356.197362-.06984071.3984015-.1311045.5969893-.19726938l.0612926-.01960441c.1495537-.04901103.29543-.10169789.4449838-.14703309h.0024517l.0429047-.01347803-.0208394.00735166c.213298-.06493962.4302736-.1213023.6447975-.18011553l-.033098.00980221.0858096-.02450552.0747769-.02082968c.1274884-.03430772.2525252-.07229127.3812395-.10537371l.0392273-.00980221-.0122586.00367583c.2206532-.05513741.4449839-.10169788.6680887-.15070891l-.0784544.01715386c.1127782-.02573079.2243306-.05268686.3383348-.07596709l.1078748-.02450552c.0465824-.0098022.0919388-.02205496.1372953-.03063189l.0012259-.00122528.0330979-.0049011c.2255566-.0453352.4596941-.08209347.6938315-.12130229l-.1250367.02082968c.2083946-.03553299.4143375-.07719236.6227321-.10782426l.0012259-.00122527.0208395-.00245055h.0049034c.1863293-.02818134.3763361-.04656048.5638913-.07106599-.1262626.01592858-.2549769.03063189-.3812396.04778575.1863293-.02573079.3751104-.04778575.5626655-.06984072l-.1814259.02205497c.2169756-.02695607.4327253-.05881324.6521526-.0808682l.0269687-.00245055c.1863293-.01837913.3738845-.02818134.5602138-.04165937l-.1826518.01347803c.1544572-.01225276.3076886-.02450551.4621458-.03430772l-.279494.02082969c.2243307-.01715386.4474355-.03920883.6729921-.05023631l.0294204-.00122527c.1863293-.00980221.3751103-.00980221.5614396-.01470331l-.1041973.00245055c.2733647-.00857693.5455036-.01960441.82132-.01960441 13.8079827 0 25 10.9674427 25 24.4993874 0 .4104673-.0122585.8184841-.0318721 1.2240504-.0073551.1347803-.0208395.2683353-.0294204.4018904zm-37.5772286 7.3577805c8.7010885-1.9481883 16.0905168-1.1542097 21.9598901 2.3623315.7355105.4386487 1.6953516.2144233 2.144013-.5097147.2150216-.3453763.2813574-.7629209.1839547-1.1578859-.0974028-.394965-.3502851-.7338607-.7012637-.939786-6.5901736-3.9478383-14.7580171-4.8655698-24.2816515-2.7311395-.3998353.0840396-.749098.325183-.9692594.6692111-.2201615.3440282-.292744.7620675-.2014281 1.1601255.1900069.8209347 1.027263 1.3355505 1.8657449 1.146858zm-.4290478-7.0441099c7.9484162-2.3635568 18.1928508-1.1921933 24.9105129 2.8561176.9157105.5501488 2.1170442.2695607 2.6809356-.6273412.2698813-.4317763.3541345-.9540994.2336949-1.4487774-.1204397-.494678-.4353919-.9198973-.873589-1.1794389-7.7179563-4.6450201-19.004364-5.9548398-28.0854663-3.2543322-.4901887.1408829-.90357038.4720103-1.14792211.9195098-.24435174.4474994-.29934299.9741381-.15270555 1.4624261.31381779 1.0084019 1.40237326 1.5769298 2.43453956 1.2718362zm-2.54609198-11.937861c-.58834253.1683692-1.08452596.565597-1.37739716 1.1026979-.29287119.5371009-.35795051 1.1691813-.18065913 1.754645.37388447 1.2117976 1.67941551 1.8942762 2.91629887 1.5266935 7.6922134-2.2875897 20.984113-1.8550674 29.0440816 2.8340626 1.1085351.6467546 2.5309045.290377 3.203148-.8025555.316157-.5226932.4076391-1.1508842.2536802-1.7419752s-.5402992-1.0949424-1.0713226-1.3971812c-9.2772384-5.3973394-23.956801-5.9046035-32.78782978-3.2763871zm15.61366088-14.5011378c-.2402667 0-.4780818.01102748-.7171227.01715386.2169756-.00612638.4327253-.01715386.6509268-.01715386z" fill="#1ed760" fill-rule="evenodd" transform="translate(3 4)"/></svg>