<svg xmlns="http://www.w3.org/2000/svg" width="32" height="32" viewBox="0 0 32 32"><path d="M16,22 C16.2761424,22 16.5,22.2238576 16.5,22.5 L16.5,25.5 C16.5,25.7761424 16.2761424,26 16,26 C15.7238576,26 15.5,25.7761424 15.5,25.5 L15.5,22.5 C15.5,22.2238576 15.7238576,22 16,22 Z M20.9497475,20.2426407 L23.0710678,22.363961 C23.26633,22.5592232 23.26633,22.8758057 23.0710678,23.0710678 C22.8758057,23.26633 22.5592232,23.26633 22.363961,23.0710678 L20.2426407,20.9497475 C20.0473785,20.7544853 20.0473785,20.4379028 20.2426407,20.2426407 C20.4379028,20.0473785 20.7544853,20.0473785 20.9497475,20.2426407 Z M11.7573593,20.2426407 C11.9526215,20.4379028 11.9526215,20.7544853 11.7573593,20.9497475 L9.63603897,23.0710678 C9.44077682,23.26633 9.12419433,23.26633 8.92893219,23.0710678 C8.73367004,22.8758057 8.73367004,22.5592232 8.92893219,22.363961 L11.0502525,20.2426407 C11.2455147,20.0473785 11.5620972,20.0473785 11.7573593,20.2426407 Z M16,11 C18.7614237,11 21,13.2385763 21,16 C21,18.7614237 18.7614237,21 16,21 C13.2385763,21 11,18.7614237 11,16 C11,13.2385763 13.2385763,11 16,11 Z M16,12 C13.790861,12 12,13.790861 12,16 C12,18.209139 13.790861,20 16,20 C18.209139,20 20,18.209139 20,16 C20,13.790861 18.209139,12 16,12 Z M25.5,15.5 C25.7761424,15.5 26,15.7238576 26,16 C26,16.2761424 25.7761424,16.5 25.5,16.5 L22.5,16.5 C22.2238576,16.5 22,16.2761424 22,16 C22,15.7238576 22.2238576,15.5 22.5,15.5 L25.5,15.5 Z M9.5,15.5 C9.77614237,15.5 10,15.7238576 10,16 C10,16.2761424 9.77614237,16.5 9.5,16.5 L6.5,16.5 C6.22385763,16.5 6,16.2761424 6,16 C6,15.7238576 6.22385763,15.5 6.5,15.5 L9.5,15.5 Z M23.0710678,8.92893219 C23.26633,9.12419433 23.26633,9.44077682 23.0710678,9.63603897 L20.9497475,11.7573593 C20.7544853,11.9526215 20.4379028,11.9526215 20.2426407,11.7573593 C20.0473785,11.5620972 20.0473785,11.2455147 20.2426407,11.0502525 L22.363961,8.92893219 C22.5592232,8.73367004 22.8758057,8.73367004 23.0710678,8.92893219 Z M9.63603897,8.92893219 L11.7573593,11.0502525 C11.9526215,11.2455147 11.9526215,11.5620972 11.7573593,11.7573593 C11.5620972,11.9526215 11.2455147,11.9526215 11.0502525,11.7573593 L8.92893219,9.63603897 C8.73367004,9.44077682 8.73367004,9.12419433 8.92893219,8.92893219 C9.12419433,8.73367004 9.44077682,8.73367004 9.63603897,8.92893219 Z M16,6 C16.2761424,6 16.5,6.22385763 16.5,6.5 L16.5,9.5 C16.5,9.77614237 16.2761424,10 16,10 C15.7238576,10 15.5,9.77614237 15.5,9.5 L15.5,6.5 C15.5,6.22385763 15.7238576,6 16,6 Z"/></svg>