<svg xmlns="http://www.w3.org/2000/svg" width="28" height="28" viewBox="0 0 28 28"><path d="M14,22 C14.8284271,22 15.5,22.6715729 15.5,23.5 C15.5,24.3284271 14.8284271,25 14,25 C13.1715729,25 12.5,24.3284271 12.5,23.5 C12.5,22.6715729 13.1715729,22 14,22 Z M21.7781746,19.6568542 C22.363961,20.2426407 22.363961,21.1923882 21.7781746,21.7781746 C21.1923882,22.363961 20.2426407,22.363961 19.6568542,21.7781746 C19.0710678,21.1923882 19.0710678,20.2426407 19.6568542,19.6568542 C20.2426407,19.0710678 21.1923882,19.0710678 21.7781746,19.6568542 Z M8.34314575,19.6568542 C8.92893219,20.2426407 8.92893219,21.1923882 8.34314575,21.7781746 C7.75735931,22.363961 6.80761184,22.363961 6.22182541,21.7781746 C5.63603897,21.1923882 5.63603897,20.2426407 6.22182541,19.6568542 C6.80761184,19.0710678 7.75735931,19.0710678 8.34314575,19.6568542 Z M14,8 C17.3137085,8 20,10.6862915 20,14 C20,17.3137085 17.3137085,20 14,20 C10.6862915,20 8,17.3137085 8,14 C8,10.6862915 10.6862915,8 14,8 Z M14,10 C11.790861,10 10,11.790861 10,14 C10,16.209139 11.790861,18 14,18 C16.209139,18 18,16.209139 18,14 C18,11.790861 16.209139,10 14,10 Z M23.5,12.5 C24.3284271,12.5 25,13.1715729 25,14 C25,14.8284271 24.3284271,15.5 23.5,15.5 C22.6715729,15.5 22,14.8284271 22,14 C22,13.1715729 22.6715729,12.5 23.5,12.5 Z M4.5,12.5 C5.32842712,12.5 6,13.1715729 6,14 C6,14.8284271 5.32842712,15.5 4.5,15.5 C3.67157288,15.5 3,14.8284271 3,14 C3,13.1715729 3.67157288,12.5 4.5,12.5 Z M21.7781746,6.22182541 C22.363961,6.80761184 22.363961,7.75735931 21.7781746,8.34314575 C21.1923882,8.92893219 20.2426407,8.92893219 19.6568542,8.34314575 C19.0710678,7.75735931 19.0710678,6.80761184 19.6568542,6.22182541 C20.2426407,5.63603897 21.1923882,5.63603897 21.7781746,6.22182541 Z M8.34314575,6.22182541 C8.92893219,6.80761184 8.92893219,7.75735931 8.34314575,8.34314575 C7.75735931,8.92893219 6.80761184,8.92893219 6.22182541,8.34314575 C5.63603897,7.75735931 5.63603897,6.80761184 6.22182541,6.22182541 C6.80761184,5.63603897 7.75735931,5.63603897 8.34314575,6.22182541 Z M14,3 C14.8284271,3 15.5,3.67157288 15.5,4.5 C15.5,5.32842712 14.8284271,6 14,6 C13.1715729,6 12.5,5.32842712 12.5,4.5 C12.5,3.67157288 13.1715729,3 14,3 Z"/></svg>