<svg xmlns="http://www.w3.org/2000/svg" width="24" height="24" viewBox="0 0 24 24"><path d="M12.5714286,18 C12.8475709,18 13.0714286,18.2238576 13.0714286,18.5 L13.0714286,21.5 C13.0714286,21.7761424 12.8475709,22 12.5714286,22 C12.2952862,22 12.0714286,21.7761424 12.0714286,21.5 L12.0714286,18.5 C12.0714286,18.2238576 12.2952862,18 12.5714286,18 Z M17.521176,16.2426407 L19.6424964,18.363961 C19.8377585,18.5592232 19.8377585,18.8758057 19.6424964,19.0710678 C19.4472342,19.26633 19.1306517,19.26633 18.9353896,19.0710678 L16.8140693,16.9497475 C16.6188071,16.7544853 16.6188071,16.4379028 16.8140693,16.2426407 C17.0093314,16.0473785 17.3259139,16.0473785 17.521176,16.2426407 Z M8.32878788,16.2426407 C8.52405003,16.4379028 8.52405003,16.7544853 8.32878788,16.9497475 L6.20746754,19.0710678 C6.01220539,19.26633 5.69562291,19.26633 5.50036076,19.0710678 C5.30509861,18.8758057 5.30509861,18.5592232 5.50036076,18.363961 L7.6216811,16.2426407 C7.81694325,16.0473785 8.13352574,16.0473785 8.32878788,16.2426407 Z M12.5714286,7 C15.3328523,7 17.5714286,9.23857625 17.5714286,12 C17.5714286,14.7614237 15.3328523,17 12.5714286,17 C9.81000482,17 7.57142857,14.7614237 7.57142857,12 C7.57142857,9.23857625 9.81000482,7 12.5714286,7 Z M12.5714286,8 C10.3622896,8 8.57142857,9.790861 8.57142857,12 C8.57142857,14.209139 10.3622896,16 12.5714286,16 C14.7805676,16 16.5714286,14.209139 16.5714286,12 C16.5714286,9.790861 14.7805676,8 12.5714286,8 Z M22.0714286,11.5 C22.3475709,11.5 22.5714286,11.7238576 22.5714286,12 C22.5714286,12.2761424 22.3475709,12.5 22.0714286,12.5 L19.0714286,12.5 C18.7952862,12.5 18.5714286,12.2761424 18.5714286,12 C18.5714286,11.7238576 18.7952862,11.5 19.0714286,11.5 L22.0714286,11.5 Z M6.07142857,11.5 C6.34757095,11.5 6.57142857,11.7238576 6.57142857,12 C6.57142857,12.2761424 6.34757095,12.5 6.07142857,12.5 L3.07142857,12.5 C2.7952862,12.5 2.57142857,12.2761424 2.57142857,12 C2.57142857,11.7238576 2.7952862,11.5 3.07142857,11.5 L6.07142857,11.5 Z M19.6424964,4.92893219 C19.8377585,5.12419433 19.8377585,5.44077682 19.6424964,5.63603897 L17.521176,7.75735931 C17.3259139,7.95262146 17.0093314,7.95262146 16.8140693,7.75735931 C16.6188071,7.56209717 16.6188071,7.24551468 16.8140693,7.05025253 L18.9353896,4.92893219 C19.1306517,4.73367004 19.4472342,4.73367004 19.6424964,4.92893219 Z M6.20746754,4.92893219 L8.32878788,7.05025253 C8.52405003,7.24551468 8.52405003,7.56209717 8.32878788,7.75735931 C8.13352574,7.95262146 7.81694325,7.95262146 7.6216811,7.75735931 L5.50036076,5.63603897 C5.30509861,5.44077682 5.30509861,5.12419433 5.50036076,4.92893219 C5.69562291,4.73367004 6.01220539,4.73367004 6.20746754,4.92893219 Z M12.5714286,2 C12.8475709,2 13.0714286,2.22385763 13.0714286,2.5 L13.0714286,5.5 C13.0714286,5.77614237 12.8475709,6 12.5714286,6 C12.2952862,6 12.0714286,5.77614237 12.0714286,5.5 L12.0714286,2.5 C12.0714286,2.22385763 12.2952862,2 12.5714286,2 Z"/></svg>