<svg xmlns="http://www.w3.org/2000/svg" width="28" height="28" viewBox="0 0 28 28"><path d="M8,24 C7.44771525,24 7,23.5522847 7,23 C7,22.4477153 7.44771525,22 8,22 L10,22 L10,20 L8,20 C5.790861,20 4,18.209139 4,16 L4,8 C4,5.790861 5.790861,4 8,4 L20,4 C22.209139,4 24,5.790861 24,8 L24,16 C24,18.209139 22.209139,20 20,20 L18,20 L18,22 L20,22 C20.5522847,22 21,22.4477153 21,23 C21,23.5522847 20.5522847,24 20,24 L8,24 Z M16,20 L12,20 L12,22 L16,22 L16,20 Z M22,16 L6,16 C6,17.1045695 6.8954305,18 8,18 L20,18 C21.1045695,18 22,17.1045695 22,16 Z M20,6 L8,6 C6.8954305,6 6,6.8954305 6,8 L6,14 L22,14 L22,8 C22,6.8954305 21.1045695,6 20,6 Z"/></svg>