<svg xmlns="http://www.w3.org/2000/svg" width="16" height="14" viewBox="0 0 16 14">
  <path fill="#1DA1F2" fill-rule="evenodd" d="M16,2.038 C15.4007097,2.30265547 14.7654536,2.4768875 14.115,2.555 C14.7999613,2.14429116 15.3126755,1.49904582 15.558,0.739 C14.9132447,1.12059491 14.2081387,1.38944828 13.473,1.534 C12.8525613,0.87133942 11.9847773,0.496120653 11.077,0.498 C10.0746447,0.497194553 9.12690728,0.954624351 8.50395395,1.73989238 C7.88100063,2.52516041 7.65117787,3.55211212 7.88,4.528 C5.24096514,4.39511188 2.78207617,3.14931357 1.114,1.1 C0.821161949,1.60042024 0.667839823,2.17019842 0.67,2.75 C0.67,3.89 1.25,4.893 2.13,5.482 C1.60877705,5.46555895 1.09899791,5.32500115 0.643,5.072 L0.643,5.112 C0.643,6.702 1.773,8.03 3.276,8.332 C2.79245935,8.46162787 2.28594425,8.48076745 1.794,8.388 C2.22410622,9.72528607 3.45650002,10.6414445 4.861,10.668 C3.69781985,11.5798112 2.2619657,12.0742776 0.784,12.072 C0.519,12.072 0.258,12.057 0.001,12.027 C1.50230905,12.990645 3.24903285,13.5023045 5.033,13.501 C11.071,13.501 14.373,8.501 14.373,4.163 C14.373,4.02 14.369,3.879 14.363,3.738 C15.0057355,3.27323291 15.5604216,2.69755136 16.001,2.038 L16,2.038 Z"/>
</svg>
