<svg width="56px" height="56px" viewBox="0 0 56 56" version="1.1" xmlns="http://www.w3.org/2000/svg" xmlns:xlink="http://www.w3.org/1999/xlink">
    <defs>
        <linearGradient x1="104.746%" y1="46.7124299%" x2="-15.926%" y2="52.4536996%" id="linearGradient-ffajlru79--1">
            <stop stop-color="#2936A3" offset="0%"></stop>
            <stop stop-color="#162286" offset="100%"></stop>
        </linearGradient>
        <linearGradient x1="-19.201%" y1="57.2377512%" x2="95.825%" y2="35.7895421%" id="linearGradient-ffajlru79--2">
            <stop stop-color="#2297F4" offset="0%"></stop>
            <stop stop-color="#31A0F9" offset="100%"></stop>
        </linearGradient>
    </defs>
    <g id="Layout" stroke="none" stroke-width="1" fill="none" fill-rule="evenodd">
        <g id="vero" fill-rule="nonzero">
            <path d="M49.1484637,28.8774037 C52.9505121,25.0159825 52.9505121,18.7571734 49.1484637,14.8957522 C47.3283226,13.0424772 44.8504123,12 42.2654224,12 C39.6804324,12 37.2025222,13.0424772 35.382381,14.8957522 L28.4993397,21.8865779 L35.3612512,28.8560699 L35.382381,28.8774037 C37.2002986,30.7287489 39.6746657,31.7712758 42.2567316,31.773788 C44.8387974,31.7762821 47.3151428,30.7385545 49.1365782,28.8907373 L49.1497843,28.8774037 L49.1484637,28.8774037 Z" id="Path" fill="url(#linearGradient-ffajlru79--1)"></path>
            <path d="M14.733257,35.8695628 L7.85153627,28.8774037 C4.04948791,25.0173159 4.04948791,18.7571734 7.85153627,14.8957522 C9.67167746,13.0424772 12.1495877,12 14.7345776,12 C17.3195676,12 19.7974778,13.0424772 21.617619,14.8957522 L28.5006603,21.8865779 L14.733257,35.8695628 Z" id="Path" fill="#17DA88"></path>
            <path d="M49.1484637,28.8774037 C47.3246868,30.7344466 44.8406426,31.7772757 42.2504456,31.7732677 C39.6602487,31.7692598 37.179382,30.7187481 35.3612512,28.8560699 L28.4993397,21.8865779 L14.733257,35.8695628 L18.6660462,39.862987 C21.2663273,42.5106629 24.8063424,44 28.4993397,44 C32.192337,44 35.7323521,42.5106629 38.3326332,39.862987 L49.1484637,28.8774037 Z" id="Path" fill="url(#linearGradient-ffajlru79--2)"></path>
        </g>
    </g>
</svg>