<svg xmlns="http://www.w3.org/2000/svg" width="56" height="56" viewBox="0 0 56 56"><defs><linearGradient id="a" x1="104.746%" x2="-15.926%" y1="46.712%" y2="52.454%"><stop offset="0%" stop-color="#2936A3"/><stop offset="100%" stop-color="#162286"/></linearGradient><linearGradient id="b" x1="-19.201%" x2="95.825%" y1="57.238%" y2="35.79%"><stop offset="0%" stop-color="#2297F4"/><stop offset="100%" stop-color="#31A0F9"/></linearGradient></defs><g fill="none" transform="translate(5 12)"><path fill="url(#a)" d="M44.1484637,16.8774037 C47.9505121,13.0159825 47.9505121,6.7571734 44.1484637,2.89575218 C42.3283226,1.04247722 39.8504123,0 37.2654224,0 C34.6804324,0 32.2025222,1.04247722 30.382381,2.89575218 L23.4993397,9.88657795 L30.3612512,16.8560699 L30.382381,16.8774037 C32.2002986,18.7287489 34.6746657,19.7712758 37.2567316,19.773788 C39.8387974,19.7762821 42.3151428,18.7385545 44.1365782,16.8907373 L44.1497843,16.8774037 L44.1484637,16.8774037 Z"/><path fill="#17DA88" d="M9.733257,23.8695628 L2.85153627,16.8774037 C-0.950512089,13.0173159 -0.950512089,6.7571734 2.85153627,2.89575218 C4.67167746,1.04247722 7.14958765,1.35820967e-12 9.73457761,1.35820967e-12 C12.3195676,1.35820967e-12 14.7974778,1.04247722 16.617619,2.89575218 L23.5006603,9.88657795 L9.733257,23.8695628 Z"/><path fill="url(#b)" d="M44.1484637,16.8774037 C42.3246868,18.7344466 39.8406426,19.7772757 37.2504456,19.7732677 C34.6602487,19.7692598 32.179382,18.7187481 30.3612512,16.8560699 L23.4993397,9.88657795 L9.733257,23.8695628 L13.6660462,27.862987 C16.2663273,30.5106629 19.8063424,32 23.4993397,32 C27.192337,32 30.7323521,30.5106629 33.3326332,27.862987 L44.1484637,16.8774037 Z"/></g></svg>