<svg xmlns="http://www.w3.org/2000/svg" width="56" height="56" viewBox="0 0 56 56"><defs><linearGradient id="a" x1="104.746%" x2="-15.926%" y1="46.787%" y2="52.398%"><stop offset="0%" stop-color="#2936A3"/><stop offset="100%" stop-color="#162286"/></linearGradient><linearGradient id="b" x1="-19.201%" x2="95.825%" y1="57.073%" y2="36.112%"><stop offset="0%" stop-color="#2297F4"/><stop offset="100%" stop-color="#31A0F9"/></linearGradient></defs><g fill="none" transform="translate(2 10)"><path fill="url(#a)" d="M48.8451088,18.4596603 C53.0516304,14.2362309 53.0516304,7.3906584 48.8451088,3.16722895 C46.8313356,1.14020946 44.0898179,0 41.229829,0 C38.3698401,0 35.6283225,1.14020946 33.6145492,3.16722895 L25.9992694,10.8134446 L33.5911716,18.4363264 L33.6145492,18.4596603 C35.6258622,20.4845691 38.3634599,21.6248329 41.2202136,21.6275806 C44.0769674,21.6303085 46.8167538,20.4952939 48.8319589,18.474244 L48.8465699,18.4596603 L48.8451088,18.4596603 Z"/><path fill="#17DA88" d="M10.7687099,26.1073343 L3.15489119,18.4596603 C-1.0516304,14.2376892 -1.0516304,7.3906584 3.15489119,3.16722895 C5.16866442,1.14020946 7.91018208,1.48554182e-12 10.770171,1.48554182e-12 C13.6301599,1.48554182e-12 16.3716775,1.14020946 18.3854508,3.16722895 L26.0007306,10.8134446 L10.7687099,26.1073343 Z"/><path fill="url(#b)" d="M48.8451088,18.4596603 C46.827313,20.490801 44.0790088,21.6313953 41.2132589,21.6270116 C38.3475092,21.6226279 35.6027205,20.4736308 33.5911716,18.4363264 L25.9992694,10.8134446 L10.7687099,26.1073343 L15.1198809,30.4751421 C17.9967876,33.3710376 21.9134001,35 25.9992694,35 C30.0851388,35 34.0017513,33.3710376 36.878658,30.4751421 L48.8451088,18.4596603 Z"/></g></svg>